<mxfile host="app.diagrams.net" modified="2024-04-22T01:15:46.051Z" agent="Mozilla/5.0 (Windows NT 10.0; Win64; x64) AppleWebKit/537.36 (KHTML, like Gecko) Chrome/124.0.0.0 Safari/537.36" etag="ftdUu-3jujDCqQWFi7ki" version="24.2.7" type="device">
  <diagram name="Page-1" id="2a216829-ef6e-dabb-86c1-c78162f3ba2b">
    <mxGraphModel dx="768" dy="386" grid="1" gridSize="10" guides="1" tooltips="1" connect="1" arrows="1" fold="1" page="1" pageScale="1" pageWidth="850" pageHeight="1100" background="none" math="0" shadow="0">
      <root>
        <mxCell id="0" />
        <mxCell id="1" parent="0" />
        <mxCell id="mFydrjpnRVTKAJveF6Fc-1" value="Paciente" style="swimlane;horizontal=0;whiteSpace=wrap;html=1;" parent="1" vertex="1">
          <mxGeometry y="70" width="850" height="250" as="geometry" />
        </mxCell>
        <mxCell id="7a84cebc1def654-1" value="" style="shape=mxgraph.bpmn.shape;html=1;verticalLabelPosition=bottom;labelBackgroundColor=#ffffff;verticalAlign=top;perimeter=ellipsePerimeter;outline=standard;symbol=general;fillColor=#d5e8d4;strokeColor=#82b366;" parent="mFydrjpnRVTKAJveF6Fc-1" vertex="1">
          <mxGeometry x="45" y="70" width="50" height="50" as="geometry" />
        </mxCell>
        <mxCell id="mFydrjpnRVTKAJveF6Fc-3" value="&lt;font style=&quot;vertical-align: inherit;&quot;&gt;&lt;font style=&quot;vertical-align: inherit;&quot;&gt;&lt;font style=&quot;vertical-align: inherit;&quot;&gt;&lt;font style=&quot;vertical-align: inherit;&quot;&gt;&lt;font style=&quot;vertical-align: inherit;&quot;&gt;&lt;font style=&quot;vertical-align: inherit;&quot;&gt;&lt;font style=&quot;vertical-align: inherit;&quot;&gt;&lt;font style=&quot;vertical-align: inherit;&quot;&gt;&lt;font style=&quot;vertical-align: inherit;&quot;&gt;&lt;font style=&quot;vertical-align: inherit;&quot;&gt;&lt;font style=&quot;vertical-align: inherit;&quot;&gt;&lt;font style=&quot;vertical-align: inherit;&quot;&gt;&lt;font style=&quot;vertical-align: inherit;&quot;&gt;&lt;font style=&quot;vertical-align: inherit;&quot;&gt;&lt;font style=&quot;vertical-align: inherit;&quot;&gt;&lt;font style=&quot;vertical-align: inherit;&quot;&gt;&lt;font style=&quot;vertical-align: inherit;&quot;&gt;&lt;font style=&quot;vertical-align: inherit;&quot;&gt;Dor/Sintomas&lt;/font&gt;&lt;/font&gt;&lt;/font&gt;&lt;/font&gt;&lt;/font&gt;&lt;/font&gt;&lt;/font&gt;&lt;/font&gt;&lt;/font&gt;&lt;/font&gt;&lt;/font&gt;&lt;/font&gt;&lt;/font&gt;&lt;/font&gt;&lt;/font&gt;&lt;/font&gt;&lt;/font&gt;&lt;/font&gt;" style="shape=ext;rounded=1;html=1;whiteSpace=wrap;" parent="mFydrjpnRVTKAJveF6Fc-1" vertex="1">
          <mxGeometry x="245" y="145" width="100" height="40" as="geometry" />
        </mxCell>
        <mxCell id="mFydrjpnRVTKAJveF6Fc-4" value="&lt;font style=&quot;vertical-align: inherit;&quot;&gt;&lt;font style=&quot;vertical-align: inherit;&quot;&gt;&lt;font style=&quot;vertical-align: inherit;&quot;&gt;&lt;font style=&quot;vertical-align: inherit;&quot;&gt;Curativos ou Ortopédicos&lt;/font&gt;&lt;/font&gt;&lt;/font&gt;&lt;/font&gt;" style="shape=ext;rounded=1;html=1;whiteSpace=wrap;" parent="mFydrjpnRVTKAJveF6Fc-1" vertex="1">
          <mxGeometry x="350" y="81.88" width="150" height="26.25" as="geometry" />
        </mxCell>
        <mxCell id="mFydrjpnRVTKAJveF6Fc-5" value="&lt;font style=&quot;vertical-align: inherit;&quot;&gt;&lt;font style=&quot;vertical-align: inherit;&quot;&gt;&lt;font style=&quot;vertical-align: inherit;&quot;&gt;&lt;font style=&quot;vertical-align: inherit;&quot;&gt;Emergência&lt;/font&gt;&lt;/font&gt;&lt;/font&gt;&lt;/font&gt;" style="shape=ext;rounded=1;html=1;whiteSpace=wrap;" parent="mFydrjpnRVTKAJveF6Fc-1" vertex="1">
          <mxGeometry x="255" y="10" width="80" height="40" as="geometry" />
        </mxCell>
        <mxCell id="mFydrjpnRVTKAJveF6Fc-171" style="edgeStyle=orthogonalEdgeStyle;rounded=0;orthogonalLoop=1;jettySize=auto;html=1;entryX=0.5;entryY=1;entryDx=0;entryDy=0;" parent="mFydrjpnRVTKAJveF6Fc-1" source="mFydrjpnRVTKAJveF6Fc-7" target="mFydrjpnRVTKAJveF6Fc-5" edge="1">
          <mxGeometry relative="1" as="geometry" />
        </mxCell>
        <mxCell id="mFydrjpnRVTKAJveF6Fc-174" style="edgeStyle=orthogonalEdgeStyle;rounded=0;orthogonalLoop=1;jettySize=auto;html=1;entryX=0;entryY=0.5;entryDx=0;entryDy=0;" parent="mFydrjpnRVTKAJveF6Fc-1" source="mFydrjpnRVTKAJveF6Fc-7" target="mFydrjpnRVTKAJveF6Fc-4" edge="1">
          <mxGeometry relative="1" as="geometry" />
        </mxCell>
        <mxCell id="mFydrjpnRVTKAJveF6Fc-175" style="edgeStyle=orthogonalEdgeStyle;rounded=0;orthogonalLoop=1;jettySize=auto;html=1;entryX=0.5;entryY=0;entryDx=0;entryDy=0;" parent="mFydrjpnRVTKAJveF6Fc-1" source="mFydrjpnRVTKAJveF6Fc-7" target="mFydrjpnRVTKAJveF6Fc-3" edge="1">
          <mxGeometry relative="1" as="geometry" />
        </mxCell>
        <mxCell id="mFydrjpnRVTKAJveF6Fc-7" value="" style="points=[[0.25,0.25,0],[0.5,0,0],[0.75,0.25,0],[1,0.5,0],[0.75,0.75,0],[0.5,1,0],[0.25,0.75,0],[0,0.5,0]];shape=mxgraph.bpmn.gateway2;html=1;verticalLabelPosition=bottom;labelBackgroundColor=#ffffff;verticalAlign=top;align=center;perimeter=rhombusPerimeter;outlineConnect=0;outline=none;symbol=none;gwType=exclusive;" parent="mFydrjpnRVTKAJveF6Fc-1" vertex="1">
          <mxGeometry x="270" y="70" width="50" height="50" as="geometry" />
        </mxCell>
        <mxCell id="mFydrjpnRVTKAJveF6Fc-157" value="Ir de carro" style="rounded=1;whiteSpace=wrap;html=1;" parent="mFydrjpnRVTKAJveF6Fc-1" vertex="1">
          <mxGeometry x="650" y="15" width="70" height="30" as="geometry" />
        </mxCell>
        <mxCell id="mFydrjpnRVTKAJveF6Fc-156" value="Chamar SAMU" style="rounded=1;whiteSpace=wrap;html=1;" parent="mFydrjpnRVTKAJveF6Fc-1" vertex="1">
          <mxGeometry x="520" y="97.5" width="90" height="25" as="geometry" />
        </mxCell>
        <mxCell id="mFydrjpnRVTKAJveF6Fc-161" value="&lt;span style=&quot;font-weight: 700;&quot;&gt;Sala de emergência&lt;/span&gt;" style="points=[[0.25,0,0],[0.5,0,0],[0.75,0,0],[1,0.25,0],[1,0.5,0],[1,0.75,0],[0.75,1,0],[0.5,1,0],[0.25,1,0],[0,0.75,0],[0,0.5,0],[0,0.25,0]];shape=mxgraph.bpmn.task;whiteSpace=wrap;rectStyle=rounded;size=10;html=1;container=1;expand=0;collapsible=0;taskMarker=abstract;isLoopSub=1;" parent="mFydrjpnRVTKAJveF6Fc-1" vertex="1">
          <mxGeometry x="642.5" y="75" width="85" height="70" as="geometry" />
        </mxCell>
        <mxCell id="mFydrjpnRVTKAJveF6Fc-167" value="&#xa;&lt;div style=&quot;border-color: var(--border-color); color: rgb(0, 0, 0); font-family: Helvetica; font-size: 12px; font-style: normal; font-variant-ligatures: normal; font-variant-caps: normal; font-weight: 400; letter-spacing: normal; orphans: 2; text-align: center; text-indent: 0px; text-transform: none; widows: 2; word-spacing: 0px; -webkit-text-stroke-width: 0px; white-space: normal; background-color: rgb(251, 251, 251); text-decoration-thickness: initial; text-decoration-style: initial; text-decoration-color: initial;&quot;&gt;&lt;span style=&quot;border-color: var(--border-color); background-color: initial;&quot;&gt;&lt;font style=&quot;border-color: var(--border-color); vertical-align: inherit;&quot;&gt;&lt;font style=&quot;border-color: var(--border-color); vertical-align: inherit;&quot;&gt;Necessidade&lt;/font&gt;&lt;/font&gt;&lt;/span&gt;&lt;br style=&quot;border-color: var(--border-color);&quot;&gt;&lt;/div&gt;&lt;div style=&quot;border-color: var(--border-color); color: rgb(0, 0, 0); font-family: Helvetica; font-size: 12px; font-style: normal; font-variant-ligatures: normal; font-variant-caps: normal; font-weight: 400; letter-spacing: normal; orphans: 2; text-align: center; text-indent: 0px; text-transform: none; widows: 2; word-spacing: 0px; -webkit-text-stroke-width: 0px; white-space: normal; background-color: rgb(251, 251, 251); text-decoration-thickness: initial; text-decoration-style: initial; text-decoration-color: initial;&quot;&gt;&lt;font style=&quot;border-color: var(--border-color); vertical-align: inherit;&quot;&gt;&lt;font style=&quot;border-color: var(--border-color); vertical-align: inherit;&quot;&gt;&lt;font style=&quot;border-color: var(--border-color); vertical-align: inherit;&quot;&gt;&lt;font style=&quot;border-color: var(--border-color); vertical-align: inherit;&quot;&gt;&lt;font style=&quot;border-color: var(--border-color); vertical-align: inherit;&quot;&gt;&lt;font style=&quot;border-color: var(--border-color); vertical-align: inherit;&quot;&gt;&lt;font style=&quot;border-color: var(--border-color); vertical-align: inherit;&quot;&gt;&lt;font style=&quot;border-color: var(--border-color); vertical-align: inherit;&quot;&gt;&lt;font style=&quot;border-color: var(--border-color); vertical-align: inherit;&quot;&gt;&lt;font style=&quot;border-color: var(--border-color); vertical-align: inherit;&quot;&gt;&lt;font style=&quot;border-color: var(--border-color); vertical-align: inherit;&quot;&gt;&lt;font style=&quot;border-color: var(--border-color); vertical-align: inherit;&quot;&gt;&lt;font style=&quot;border-color: var(--border-color); vertical-align: inherit;&quot;&gt;&lt;font style=&quot;border-color: var(--border-color); vertical-align: inherit;&quot;&gt;&lt;font style=&quot;border-color: var(--border-color); vertical-align: inherit;&quot;&gt;&lt;font style=&quot;border-color: var(--border-color); vertical-align: inherit;&quot;&gt;de ir ao médico.&lt;/font&gt;&lt;/font&gt;&lt;/font&gt;&lt;/font&gt;&lt;/font&gt;&lt;/font&gt;&lt;/font&gt;&lt;/font&gt;&lt;/font&gt;&lt;/font&gt;&lt;/font&gt;&lt;/font&gt;&lt;/font&gt;&lt;/font&gt;&lt;/font&gt;&lt;/font&gt;&lt;/div&gt;&#xa;&#xa;" style="text;html=1;align=center;verticalAlign=middle;whiteSpace=wrap;rounded=0;" parent="mFydrjpnRVTKAJveF6Fc-1" vertex="1">
          <mxGeometry x="40" y="40" width="60" height="30" as="geometry" />
        </mxCell>
        <mxCell id="mFydrjpnRVTKAJveF6Fc-169" value="Moitivo da ida" style="rounded=1;whiteSpace=wrap;html=1;" parent="mFydrjpnRVTKAJveF6Fc-1" vertex="1">
          <mxGeometry x="140" y="78.75" width="100" height="32.5" as="geometry" />
        </mxCell>
        <mxCell id="mFydrjpnRVTKAJveF6Fc-168" style="edgeStyle=orthogonalEdgeStyle;rounded=0;orthogonalLoop=1;jettySize=auto;html=1;" parent="mFydrjpnRVTKAJveF6Fc-1" source="7a84cebc1def654-1" target="mFydrjpnRVTKAJveF6Fc-169" edge="1">
          <mxGeometry relative="1" as="geometry">
            <mxPoint x="160" y="94.99999999999994" as="targetPoint" />
          </mxGeometry>
        </mxCell>
        <mxCell id="mFydrjpnRVTKAJveF6Fc-170" style="edgeStyle=orthogonalEdgeStyle;rounded=0;orthogonalLoop=1;jettySize=auto;html=1;entryX=0;entryY=0.5;entryDx=0;entryDy=0;entryPerimeter=0;" parent="mFydrjpnRVTKAJveF6Fc-1" source="mFydrjpnRVTKAJveF6Fc-169" target="mFydrjpnRVTKAJveF6Fc-7" edge="1">
          <mxGeometry relative="1" as="geometry" />
        </mxCell>
        <mxCell id="mFydrjpnRVTKAJveF6Fc-173" style="edgeStyle=orthogonalEdgeStyle;rounded=0;orthogonalLoop=1;jettySize=auto;html=1;entryX=0.5;entryY=0;entryDx=0;entryDy=0;" parent="mFydrjpnRVTKAJveF6Fc-1" source="mFydrjpnRVTKAJveF6Fc-152" target="mFydrjpnRVTKAJveF6Fc-156" edge="1">
          <mxGeometry relative="1" as="geometry" />
        </mxCell>
        <mxCell id="mFydrjpnRVTKAJveF6Fc-152" value="" style="points=[[0.25,0.25,0],[0.5,0,0],[0.75,0.25,0],[1,0.5,0],[0.75,0.75,0],[0.5,1,0],[0.25,0.75,0],[0,0.5,0]];shape=mxgraph.bpmn.gateway2;html=1;verticalLabelPosition=bottom;labelBackgroundColor=#ffffff;verticalAlign=top;align=center;perimeter=rhombusPerimeter;outlineConnect=0;outline=none;symbol=none;gwType=exclusive;" parent="mFydrjpnRVTKAJveF6Fc-1" vertex="1">
          <mxGeometry x="540" y="5.000000000000057" width="50" height="50" as="geometry" />
        </mxCell>
        <mxCell id="mFydrjpnRVTKAJveF6Fc-150" style="edgeStyle=orthogonalEdgeStyle;rounded=0;orthogonalLoop=1;jettySize=auto;html=1;" parent="mFydrjpnRVTKAJveF6Fc-1" source="mFydrjpnRVTKAJveF6Fc-5" target="mFydrjpnRVTKAJveF6Fc-152" edge="1">
          <mxGeometry relative="1" as="geometry">
            <mxPoint x="520" y="115.00000000000006" as="targetPoint" />
          </mxGeometry>
        </mxCell>
        <mxCell id="mFydrjpnRVTKAJveF6Fc-159" style="edgeStyle=orthogonalEdgeStyle;rounded=0;orthogonalLoop=1;jettySize=auto;html=1;entryX=0;entryY=0.5;entryDx=0;entryDy=0;" parent="mFydrjpnRVTKAJveF6Fc-1" source="mFydrjpnRVTKAJveF6Fc-152" target="mFydrjpnRVTKAJveF6Fc-157" edge="1">
          <mxGeometry relative="1" as="geometry" />
        </mxCell>
        <mxCell id="mFydrjpnRVTKAJveF6Fc-178" style="edgeStyle=orthogonalEdgeStyle;rounded=0;orthogonalLoop=1;jettySize=auto;html=1;entryX=0.5;entryY=0;entryDx=0;entryDy=0;entryPerimeter=0;" parent="mFydrjpnRVTKAJveF6Fc-1" source="mFydrjpnRVTKAJveF6Fc-157" target="mFydrjpnRVTKAJveF6Fc-161" edge="1">
          <mxGeometry relative="1" as="geometry" />
        </mxCell>
        <mxCell id="mFydrjpnRVTKAJveF6Fc-179" style="edgeStyle=orthogonalEdgeStyle;rounded=0;orthogonalLoop=1;jettySize=auto;html=1;entryX=0;entryY=0.5;entryDx=0;entryDy=0;entryPerimeter=0;" parent="mFydrjpnRVTKAJveF6Fc-1" source="mFydrjpnRVTKAJveF6Fc-156" target="mFydrjpnRVTKAJveF6Fc-161" edge="1">
          <mxGeometry relative="1" as="geometry" />
        </mxCell>
        <mxCell id="mFydrjpnRVTKAJveF6Fc-12" value="Enfermagem" style="swimlane;horizontal=0;whiteSpace=wrap;html=1;" parent="1" vertex="1">
          <mxGeometry y="320" width="850" height="370" as="geometry" />
        </mxCell>
        <mxCell id="mFydrjpnRVTKAJveF6Fc-41" style="edgeStyle=orthogonalEdgeStyle;rounded=0;orthogonalLoop=1;jettySize=auto;html=1;entryX=0;entryY=0.5;entryDx=0;entryDy=0;" parent="mFydrjpnRVTKAJveF6Fc-12" source="mFydrjpnRVTKAJveF6Fc-21" target="mFydrjpnRVTKAJveF6Fc-39" edge="1">
          <mxGeometry relative="1" as="geometry" />
        </mxCell>
        <mxCell id="mFydrjpnRVTKAJveF6Fc-21" value="Atendimento&amp;nbsp;enfermeiro(a) qualificado" style="rounded=1;whiteSpace=wrap;html=1;" parent="mFydrjpnRVTKAJveF6Fc-12" vertex="1">
          <mxGeometry x="30" y="50" width="160" height="40" as="geometry" />
        </mxCell>
        <mxCell id="mFydrjpnRVTKAJveF6Fc-22" value="Triagem" style="points=[[0.25,0,0],[0.5,0,0],[0.75,0,0],[1,0.25,0],[1,0.5,0],[1,0.75,0],[0.75,1,0],[0.5,1,0],[0.25,1,0],[0,0.75,0],[0,0.5,0],[0,0.25,0]];shape=mxgraph.bpmn.task;whiteSpace=wrap;rectStyle=rounded;size=10;html=1;container=1;expand=0;collapsible=0;taskMarker=abstract;isLoopSub=1;" parent="mFydrjpnRVTKAJveF6Fc-12" vertex="1">
          <mxGeometry x="380" y="45" width="70" height="50" as="geometry" />
        </mxCell>
        <mxCell id="mFydrjpnRVTKAJveF6Fc-39" value="Registro da data e horário de chegada" style="rounded=1;whiteSpace=wrap;html=1;" parent="mFydrjpnRVTKAJveF6Fc-12" vertex="1">
          <mxGeometry x="230" y="40" width="120" height="60" as="geometry" />
        </mxCell>
        <mxCell id="mFydrjpnRVTKAJveF6Fc-42" style="edgeStyle=orthogonalEdgeStyle;rounded=0;orthogonalLoop=1;jettySize=auto;html=1;exitX=1;exitY=0.5;exitDx=0;exitDy=0;entryX=0;entryY=0.5;entryDx=0;entryDy=0;entryPerimeter=0;" parent="mFydrjpnRVTKAJveF6Fc-12" source="mFydrjpnRVTKAJveF6Fc-39" target="mFydrjpnRVTKAJveF6Fc-22" edge="1">
          <mxGeometry relative="1" as="geometry" />
        </mxCell>
        <mxCell id="mFydrjpnRVTKAJveF6Fc-257" value="observação" style="points=[[0.25,0,0],[0.5,0,0],[0.75,0,0],[1,0.25,0],[1,0.5,0],[1,0.75,0],[0.75,1,0],[0.5,1,0],[0.25,1,0],[0,0.75,0],[0,0.5,0],[0,0.25,0]];shape=mxgraph.bpmn.task;whiteSpace=wrap;rectStyle=rounded;size=10;html=1;container=1;expand=0;collapsible=0;taskMarker=abstract;isLoopSub=1;" parent="mFydrjpnRVTKAJveF6Fc-12" vertex="1">
          <mxGeometry x="580" y="118.75" width="80" height="72.5" as="geometry" />
        </mxCell>
        <mxCell id="mFydrjpnRVTKAJveF6Fc-261" value="&#xa;sala de medicação&#xa;&#xa;" style="points=[[0.25,0,0],[0.5,0,0],[0.75,0,0],[1,0.25,0],[1,0.5,0],[1,0.75,0],[0.75,1,0],[0.5,1,0],[0.25,1,0],[0,0.75,0],[0,0.5,0],[0,0.25,0]];shape=mxgraph.bpmn.task;whiteSpace=wrap;rectStyle=rounded;size=10;html=1;container=1;expand=0;collapsible=0;taskMarker=abstract;isLoopSub=1;" parent="mFydrjpnRVTKAJveF6Fc-12" vertex="1">
          <mxGeometry x="590" y="45" width="120" height="50" as="geometry" />
        </mxCell>
        <mxCell id="mFydrjpnRVTKAJveF6Fc-264" value="Precisa de medicação" style="text;html=1;align=center;verticalAlign=middle;whiteSpace=wrap;rounded=0;" parent="mFydrjpnRVTKAJveF6Fc-12" vertex="1">
          <mxGeometry x="480" y="10" width="60" height="30" as="geometry" />
        </mxCell>
        <mxCell id="mFydrjpnRVTKAJveF6Fc-265" value="Sim" style="text;html=1;align=center;verticalAlign=middle;whiteSpace=wrap;rounded=0;" parent="mFydrjpnRVTKAJveF6Fc-12" vertex="1">
          <mxGeometry x="530" y="45" width="60" height="30" as="geometry" />
        </mxCell>
        <mxCell id="mFydrjpnRVTKAJveF6Fc-268" value="Não" style="text;html=1;align=center;verticalAlign=middle;whiteSpace=wrap;rounded=0;" parent="mFydrjpnRVTKAJveF6Fc-12" vertex="1">
          <mxGeometry x="460" y="90" width="60" height="30" as="geometry" />
        </mxCell>
        <mxCell id="mFydrjpnRVTKAJveF6Fc-273" style="edgeStyle=orthogonalEdgeStyle;rounded=0;orthogonalLoop=1;jettySize=auto;html=1;entryX=0;entryY=0.5;entryDx=0;entryDy=0;entryPerimeter=0;" parent="mFydrjpnRVTKAJveF6Fc-12" source="mFydrjpnRVTKAJveF6Fc-270" target="mFydrjpnRVTKAJveF6Fc-257" edge="1">
          <mxGeometry relative="1" as="geometry">
            <mxPoint x="620" y="155" as="targetPoint" />
          </mxGeometry>
        </mxCell>
        <mxCell id="mFydrjpnRVTKAJveF6Fc-270" value="" style="points=[[0.25,0.25,0],[0.5,0,0],[0.75,0.25,0],[1,0.5,0],[0.75,0.75,0],[0.5,1,0],[0.25,0.75,0],[0,0.5,0]];shape=mxgraph.bpmn.gateway2;html=1;verticalLabelPosition=bottom;labelBackgroundColor=#ffffff;verticalAlign=top;align=center;perimeter=rhombusPerimeter;outlineConnect=0;outline=none;symbol=none;gwType=exclusive;" parent="mFydrjpnRVTKAJveF6Fc-12" vertex="1">
          <mxGeometry x="485" y="130" width="50" height="50" as="geometry" />
        </mxCell>
        <mxCell id="mFydrjpnRVTKAJveF6Fc-272" value="&#xa;&lt;span style=&quot;color: rgb(0, 0, 0); font-family: Helvetica; font-size: 12px; font-style: normal; font-variant-ligatures: normal; font-variant-caps: normal; font-weight: 400; letter-spacing: normal; orphans: 2; text-align: center; text-indent: 0px; text-transform: none; widows: 2; word-spacing: 0px; -webkit-text-stroke-width: 0px; white-space: normal; background-color: rgb(251, 251, 251); text-decoration-thickness: initial; text-decoration-style: initial; text-decoration-color: initial; display: inline !important; float: none;&quot;&gt;Tem um ou mais sintomas&lt;/span&gt;&lt;br style=&quot;border-color: var(--border-color); color: rgb(0, 0, 0); font-family: Helvetica; font-size: 12px; font-style: normal; font-variant-ligatures: normal; font-variant-caps: normal; font-weight: 400; letter-spacing: normal; orphans: 2; text-align: center; text-indent: 0px; text-transform: none; widows: 2; word-spacing: 0px; -webkit-text-stroke-width: 0px; white-space: normal; background-color: rgb(251, 251, 251); text-decoration-thickness: initial; text-decoration-style: initial; text-decoration-color: initial;&quot;&gt;&lt;span style=&quot;color: rgb(0, 0, 0); font-family: Helvetica; font-size: 12px; font-style: normal; font-variant-ligatures: normal; font-variant-caps: normal; font-weight: 400; letter-spacing: normal; orphans: 2; text-align: center; text-indent: 0px; text-transform: none; widows: 2; word-spacing: 0px; -webkit-text-stroke-width: 0px; white-space: normal; background-color: rgb(251, 251, 251); text-decoration-thickness: initial; text-decoration-style: initial; text-decoration-color: initial; display: inline !important; float: none;&quot;&gt;descritos no manual de admissão à Observação&lt;/span&gt;&#xa;&#xa;" style="text;html=1;align=center;verticalAlign=middle;whiteSpace=wrap;rounded=0;" parent="mFydrjpnRVTKAJveF6Fc-12" vertex="1">
          <mxGeometry x="350" y="150" width="140" height="30" as="geometry" />
        </mxCell>
        <mxCell id="mFydrjpnRVTKAJveF6Fc-274" value="Sim" style="text;html=1;align=center;verticalAlign=middle;whiteSpace=wrap;rounded=0;" parent="mFydrjpnRVTKAJveF6Fc-12" vertex="1">
          <mxGeometry x="520" y="130" width="60" height="30" as="geometry" />
        </mxCell>
        <mxCell id="mFydrjpnRVTKAJveF6Fc-279" value="" style="points=[[0.25,0.25,0],[0.5,0,0],[0.75,0.25,0],[1,0.5,0],[0.75,0.75,0],[0.5,1,0],[0.25,0.75,0],[0,0.5,0]];shape=mxgraph.bpmn.gateway2;html=1;verticalLabelPosition=bottom;labelBackgroundColor=#ffffff;verticalAlign=top;align=center;perimeter=rhombusPerimeter;outlineConnect=0;outline=none;symbol=none;gwType=exclusive;" parent="mFydrjpnRVTKAJveF6Fc-12" vertex="1">
          <mxGeometry x="740" y="45" width="50" height="50" as="geometry" />
        </mxCell>
        <mxCell id="mFydrjpnRVTKAJveF6Fc-280" style="edgeStyle=orthogonalEdgeStyle;rounded=0;orthogonalLoop=1;jettySize=auto;html=1;entryX=0;entryY=0.5;entryDx=0;entryDy=0;entryPerimeter=0;" parent="mFydrjpnRVTKAJveF6Fc-12" source="mFydrjpnRVTKAJveF6Fc-261" target="mFydrjpnRVTKAJveF6Fc-279" edge="1">
          <mxGeometry relative="1" as="geometry" />
        </mxCell>
        <mxCell id="mFydrjpnRVTKAJveF6Fc-281" style="edgeStyle=orthogonalEdgeStyle;rounded=0;orthogonalLoop=1;jettySize=auto;html=1;entryX=0.989;entryY=0.553;entryDx=0;entryDy=0;entryPerimeter=0;" parent="mFydrjpnRVTKAJveF6Fc-12" source="mFydrjpnRVTKAJveF6Fc-279" target="mFydrjpnRVTKAJveF6Fc-257" edge="1">
          <mxGeometry relative="1" as="geometry">
            <Array as="points">
              <mxPoint x="765" y="159" />
            </Array>
          </mxGeometry>
        </mxCell>
        <mxCell id="mFydrjpnRVTKAJveF6Fc-282" value="Precisa de Obeservação" style="text;html=1;align=center;verticalAlign=middle;whiteSpace=wrap;rounded=0;" parent="mFydrjpnRVTKAJveF6Fc-12" vertex="1">
          <mxGeometry x="735" y="10" width="60" height="30" as="geometry" />
        </mxCell>
        <mxCell id="mFydrjpnRVTKAJveF6Fc-283" value="Sim" style="text;html=1;align=center;verticalAlign=middle;whiteSpace=wrap;rounded=0;" parent="mFydrjpnRVTKAJveF6Fc-12" vertex="1">
          <mxGeometry x="690" y="130" width="60" height="30" as="geometry" />
        </mxCell>
        <mxCell id="mFydrjpnRVTKAJveF6Fc-321" style="edgeStyle=orthogonalEdgeStyle;rounded=0;orthogonalLoop=1;jettySize=auto;html=1;entryX=0.5;entryY=0;entryDx=0;entryDy=0;" parent="mFydrjpnRVTKAJveF6Fc-12" source="mFydrjpnRVTKAJveF6Fc-289" target="mFydrjpnRVTKAJveF6Fc-320" edge="1">
          <mxGeometry relative="1" as="geometry" />
        </mxCell>
        <mxCell id="mFydrjpnRVTKAJveF6Fc-289" value="Alta" style="points=[[0.25,0,0],[0.5,0,0],[0.75,0,0],[1,0.25,0],[1,0.5,0],[1,0.75,0],[0.75,1,0],[0.5,1,0],[0.25,1,0],[0,0.75,0],[0,0.5,0],[0,0.25,0]];shape=mxgraph.bpmn.task;whiteSpace=wrap;rectStyle=rounded;size=10;html=1;container=1;expand=0;collapsible=0;taskMarker=abstract;isLoopSub=1;" parent="mFydrjpnRVTKAJveF6Fc-12" vertex="1">
          <mxGeometry x="590" y="220" width="60" height="50" as="geometry" />
        </mxCell>
        <mxCell id="mFydrjpnRVTKAJveF6Fc-284" style="edgeStyle=orthogonalEdgeStyle;rounded=0;orthogonalLoop=1;jettySize=auto;html=1;entryX=0;entryY=0.5;entryDx=0;entryDy=0;entryPerimeter=0;" parent="mFydrjpnRVTKAJveF6Fc-12" source="mFydrjpnRVTKAJveF6Fc-270" target="mFydrjpnRVTKAJveF6Fc-289" edge="1">
          <mxGeometry relative="1" as="geometry">
            <mxPoint x="510" y="240" as="targetPoint" />
            <Array as="points">
              <mxPoint x="510" y="245" />
            </Array>
          </mxGeometry>
        </mxCell>
        <mxCell id="mFydrjpnRVTKAJveF6Fc-290" style="edgeStyle=orthogonalEdgeStyle;rounded=0;orthogonalLoop=1;jettySize=auto;html=1;entryX=1;entryY=0.5;entryDx=0;entryDy=0;entryPerimeter=0;" parent="mFydrjpnRVTKAJveF6Fc-12" source="mFydrjpnRVTKAJveF6Fc-279" target="mFydrjpnRVTKAJveF6Fc-289" edge="1">
          <mxGeometry relative="1" as="geometry">
            <Array as="points">
              <mxPoint x="810" y="70" />
              <mxPoint x="810" y="245" />
            </Array>
          </mxGeometry>
        </mxCell>
        <mxCell id="mFydrjpnRVTKAJveF6Fc-291" value="não" style="text;html=1;align=center;verticalAlign=middle;whiteSpace=wrap;rounded=0;" parent="mFydrjpnRVTKAJveF6Fc-12" vertex="1">
          <mxGeometry x="500" y="210" width="60" height="30" as="geometry" />
        </mxCell>
        <mxCell id="mFydrjpnRVTKAJveF6Fc-316" value="não" style="text;html=1;align=center;verticalAlign=middle;whiteSpace=wrap;rounded=0;" parent="mFydrjpnRVTKAJveF6Fc-12" vertex="1">
          <mxGeometry x="760" y="210" width="60" height="30" as="geometry" />
        </mxCell>
        <mxCell id="mFydrjpnRVTKAJveF6Fc-317" style="edgeStyle=orthogonalEdgeStyle;rounded=0;orthogonalLoop=1;jettySize=auto;html=1;entryX=0.5;entryY=0;entryDx=0;entryDy=0;entryPerimeter=0;" parent="mFydrjpnRVTKAJveF6Fc-12" source="mFydrjpnRVTKAJveF6Fc-257" target="mFydrjpnRVTKAJveF6Fc-289" edge="1">
          <mxGeometry relative="1" as="geometry" />
        </mxCell>
        <mxCell id="mFydrjpnRVTKAJveF6Fc-320" value="" style="shape=mxgraph.bpmn.shape;html=1;verticalLabelPosition=bottom;labelBackgroundColor=#ffffff;verticalAlign=top;perimeter=ellipsePerimeter;outline=standard;symbol=general;fillColor=#f8cecc;strokeColor=#b85450;" parent="mFydrjpnRVTKAJveF6Fc-12" vertex="1">
          <mxGeometry x="595" y="300" width="50" height="50" as="geometry" />
        </mxCell>
        <mxCell id="mFydrjpnRVTKAJveF6Fc-322" value="Pode ir embora" style="text;html=1;align=center;verticalAlign=middle;whiteSpace=wrap;rounded=0;" parent="mFydrjpnRVTKAJveF6Fc-12" vertex="1">
          <mxGeometry x="645" y="310" width="60" height="30" as="geometry" />
        </mxCell>
        <mxCell id="mFydrjpnRVTKAJveF6Fc-15" value="Ryan Miranda Barbosa RA:01232061" style="text;html=1;align=center;verticalAlign=middle;whiteSpace=wrap;rounded=0;" parent="1" vertex="1">
          <mxGeometry width="210" height="30" as="geometry" />
        </mxCell>
        <mxCell id="mFydrjpnRVTKAJveF6Fc-16" value="(UPA) do HIAE" style="rounded=0;whiteSpace=wrap;html=1;" parent="1" vertex="1">
          <mxGeometry y="40" width="850" height="30" as="geometry" />
        </mxCell>
        <mxCell id="mFydrjpnRVTKAJveF6Fc-20" style="edgeStyle=orthogonalEdgeStyle;rounded=0;orthogonalLoop=1;jettySize=auto;html=1;" parent="1" source="mFydrjpnRVTKAJveF6Fc-3" target="mFydrjpnRVTKAJveF6Fc-21" edge="1">
          <mxGeometry relative="1" as="geometry">
            <mxPoint x="90" y="350" as="targetPoint" />
          </mxGeometry>
        </mxCell>
        <mxCell id="mFydrjpnRVTKAJveF6Fc-24" value="Triagem" style="swimlane;horizontal=0;whiteSpace=wrap;html=1;" parent="1" vertex="1">
          <mxGeometry y="1540" width="850" height="320" as="geometry" />
        </mxCell>
        <mxCell id="mFydrjpnRVTKAJveF6Fc-25" value="Avaliação" style="rounded=1;whiteSpace=wrap;html=1;" parent="mFydrjpnRVTKAJveF6Fc-24" vertex="1">
          <mxGeometry x="40" y="100" width="60" height="60" as="geometry" />
        </mxCell>
        <mxCell id="mFydrjpnRVTKAJveF6Fc-47" style="edgeStyle=orthogonalEdgeStyle;rounded=0;orthogonalLoop=1;jettySize=auto;html=1;exitX=1;exitY=0.5;exitDx=0;exitDy=0;exitPerimeter=0;entryX=0;entryY=0.5;entryDx=0;entryDy=0;" parent="mFydrjpnRVTKAJveF6Fc-24" source="mFydrjpnRVTKAJveF6Fc-28" target="mFydrjpnRVTKAJveF6Fc-34" edge="1">
          <mxGeometry relative="1" as="geometry" />
        </mxCell>
        <mxCell id="mFydrjpnRVTKAJveF6Fc-48" style="edgeStyle=orthogonalEdgeStyle;rounded=0;orthogonalLoop=1;jettySize=auto;html=1;entryX=0;entryY=0.5;entryDx=0;entryDy=0;" parent="mFydrjpnRVTKAJveF6Fc-24" source="mFydrjpnRVTKAJveF6Fc-28" target="mFydrjpnRVTKAJveF6Fc-33" edge="1">
          <mxGeometry relative="1" as="geometry" />
        </mxCell>
        <mxCell id="mFydrjpnRVTKAJveF6Fc-49" style="edgeStyle=orthogonalEdgeStyle;rounded=0;orthogonalLoop=1;jettySize=auto;html=1;entryX=0;entryY=0.5;entryDx=0;entryDy=0;" parent="mFydrjpnRVTKAJveF6Fc-24" source="mFydrjpnRVTKAJveF6Fc-28" target="mFydrjpnRVTKAJveF6Fc-35" edge="1">
          <mxGeometry relative="1" as="geometry" />
        </mxCell>
        <mxCell id="mFydrjpnRVTKAJveF6Fc-50" style="edgeStyle=orthogonalEdgeStyle;rounded=0;orthogonalLoop=1;jettySize=auto;html=1;entryX=0;entryY=0.5;entryDx=0;entryDy=0;" parent="mFydrjpnRVTKAJveF6Fc-24" source="mFydrjpnRVTKAJveF6Fc-28" target="mFydrjpnRVTKAJveF6Fc-32" edge="1">
          <mxGeometry relative="1" as="geometry" />
        </mxCell>
        <mxCell id="mFydrjpnRVTKAJveF6Fc-51" style="edgeStyle=orthogonalEdgeStyle;rounded=0;orthogonalLoop=1;jettySize=auto;html=1;entryX=0;entryY=0.5;entryDx=0;entryDy=0;" parent="mFydrjpnRVTKAJveF6Fc-24" source="mFydrjpnRVTKAJveF6Fc-28" target="mFydrjpnRVTKAJveF6Fc-31" edge="1">
          <mxGeometry relative="1" as="geometry">
            <mxPoint x="390" y="60" as="targetPoint" />
          </mxGeometry>
        </mxCell>
        <mxCell id="mFydrjpnRVTKAJveF6Fc-52" style="edgeStyle=orthogonalEdgeStyle;rounded=0;orthogonalLoop=1;jettySize=auto;html=1;entryX=0;entryY=0.5;entryDx=0;entryDy=0;" parent="mFydrjpnRVTKAJveF6Fc-24" source="mFydrjpnRVTKAJveF6Fc-28" target="mFydrjpnRVTKAJveF6Fc-37" edge="1">
          <mxGeometry relative="1" as="geometry" />
        </mxCell>
        <mxCell id="mFydrjpnRVTKAJveF6Fc-53" style="edgeStyle=orthogonalEdgeStyle;rounded=0;orthogonalLoop=1;jettySize=auto;html=1;entryX=0;entryY=0.5;entryDx=0;entryDy=0;" parent="mFydrjpnRVTKAJveF6Fc-24" source="mFydrjpnRVTKAJveF6Fc-28" target="mFydrjpnRVTKAJveF6Fc-36" edge="1">
          <mxGeometry relative="1" as="geometry" />
        </mxCell>
        <mxCell id="mFydrjpnRVTKAJveF6Fc-28" value="" style="points=[[0.25,0.25,0],[0.5,0,0],[0.75,0.25,0],[1,0.5,0],[0.75,0.75,0],[0.5,1,0],[0.25,0.75,0],[0,0.5,0]];shape=mxgraph.bpmn.gateway2;html=1;verticalLabelPosition=bottom;labelBackgroundColor=#ffffff;verticalAlign=top;align=center;perimeter=rhombusPerimeter;outlineConnect=0;outline=none;symbol=none;gwType=parallel;" parent="mFydrjpnRVTKAJveF6Fc-24" vertex="1">
          <mxGeometry x="120" y="105" width="50" height="50" as="geometry" />
        </mxCell>
        <mxCell id="mFydrjpnRVTKAJveF6Fc-30" style="edgeStyle=orthogonalEdgeStyle;rounded=0;orthogonalLoop=1;jettySize=auto;html=1;entryX=0;entryY=0.5;entryDx=0;entryDy=0;entryPerimeter=0;" parent="mFydrjpnRVTKAJveF6Fc-24" source="mFydrjpnRVTKAJveF6Fc-25" target="mFydrjpnRVTKAJveF6Fc-28" edge="1">
          <mxGeometry relative="1" as="geometry" />
        </mxCell>
        <mxCell id="mFydrjpnRVTKAJveF6Fc-31" value="Queixa principal" style="rounded=1;whiteSpace=wrap;html=1;" parent="mFydrjpnRVTKAJveF6Fc-24" vertex="1">
          <mxGeometry x="210" y="10" width="120" height="30" as="geometry" />
        </mxCell>
        <mxCell id="mFydrjpnRVTKAJveF6Fc-32" value="Sintomas aparentes" style="rounded=1;whiteSpace=wrap;html=1;" parent="mFydrjpnRVTKAJveF6Fc-24" vertex="1">
          <mxGeometry x="210" y="50" width="120" height="30" as="geometry" />
        </mxCell>
        <mxCell id="mFydrjpnRVTKAJveF6Fc-33" value="Antecedentes clínicos" style="rounded=1;whiteSpace=wrap;html=1;" parent="mFydrjpnRVTKAJveF6Fc-24" vertex="1">
          <mxGeometry x="210" y="90" width="120" height="35" as="geometry" />
        </mxCell>
        <mxCell id="mFydrjpnRVTKAJveF6Fc-58" style="edgeStyle=orthogonalEdgeStyle;rounded=0;orthogonalLoop=1;jettySize=auto;html=1;entryX=0;entryY=0.5;entryDx=0;entryDy=0;entryPerimeter=0;" parent="mFydrjpnRVTKAJveF6Fc-24" source="mFydrjpnRVTKAJveF6Fc-34" target="mFydrjpnRVTKAJveF6Fc-55" edge="1">
          <mxGeometry relative="1" as="geometry">
            <mxPoint x="480" y="150" as="targetPoint" />
          </mxGeometry>
        </mxCell>
        <mxCell id="mFydrjpnRVTKAJveF6Fc-34" value="Antecedentes cirúrgicos" style="rounded=1;whiteSpace=wrap;html=1;" parent="mFydrjpnRVTKAJveF6Fc-24" vertex="1">
          <mxGeometry x="210" y="135" width="120" height="40" as="geometry" />
        </mxCell>
        <mxCell id="mFydrjpnRVTKAJveF6Fc-35" value="Antecedentes alérgicos" style="rounded=1;whiteSpace=wrap;html=1;" parent="mFydrjpnRVTKAJveF6Fc-24" vertex="1">
          <mxGeometry x="210" y="180" width="120" height="40" as="geometry" />
        </mxCell>
        <mxCell id="mFydrjpnRVTKAJveF6Fc-36" value="Antecendentes de imunização" style="rounded=1;whiteSpace=wrap;html=1;" parent="mFydrjpnRVTKAJveF6Fc-24" vertex="1">
          <mxGeometry x="210" y="270" width="120" height="40" as="geometry" />
        </mxCell>
        <mxCell id="mFydrjpnRVTKAJveF6Fc-37" value="parâmetros vitais" style="rounded=1;whiteSpace=wrap;html=1;" parent="mFydrjpnRVTKAJveF6Fc-24" vertex="1">
          <mxGeometry x="210" y="230" width="120" height="30" as="geometry" />
        </mxCell>
        <mxCell id="mFydrjpnRVTKAJveF6Fc-55" value="" style="points=[[0.25,0.25,0],[0.5,0,0],[0.75,0.25,0],[1,0.5,0],[0.75,0.75,0],[0.5,1,0],[0.25,0.75,0],[0,0.5,0]];shape=mxgraph.bpmn.gateway2;html=1;verticalLabelPosition=bottom;labelBackgroundColor=#ffffff;verticalAlign=top;align=center;perimeter=rhombusPerimeter;outlineConnect=0;outline=none;symbol=none;gwType=parallel;" parent="mFydrjpnRVTKAJveF6Fc-24" vertex="1">
          <mxGeometry x="370" y="105" width="50" height="50" as="geometry" />
        </mxCell>
        <mxCell id="mFydrjpnRVTKAJveF6Fc-54" style="edgeStyle=orthogonalEdgeStyle;rounded=0;orthogonalLoop=1;jettySize=auto;html=1;entryX=0;entryY=0.5;entryDx=0;entryDy=0;entryPerimeter=0;" parent="mFydrjpnRVTKAJveF6Fc-24" source="mFydrjpnRVTKAJveF6Fc-31" target="mFydrjpnRVTKAJveF6Fc-55" edge="1">
          <mxGeometry relative="1" as="geometry">
            <mxPoint x="480" y="150" as="targetPoint" />
          </mxGeometry>
        </mxCell>
        <mxCell id="mFydrjpnRVTKAJveF6Fc-56" style="edgeStyle=orthogonalEdgeStyle;rounded=0;orthogonalLoop=1;jettySize=auto;html=1;entryX=0;entryY=0.5;entryDx=0;entryDy=0;entryPerimeter=0;" parent="mFydrjpnRVTKAJveF6Fc-24" source="mFydrjpnRVTKAJveF6Fc-32" target="mFydrjpnRVTKAJveF6Fc-55" edge="1">
          <mxGeometry relative="1" as="geometry">
            <mxPoint x="480" y="150" as="targetPoint" />
          </mxGeometry>
        </mxCell>
        <mxCell id="mFydrjpnRVTKAJveF6Fc-57" style="edgeStyle=orthogonalEdgeStyle;rounded=0;orthogonalLoop=1;jettySize=auto;html=1;entryX=0;entryY=0.5;entryDx=0;entryDy=0;entryPerimeter=0;" parent="mFydrjpnRVTKAJveF6Fc-24" source="mFydrjpnRVTKAJveF6Fc-33" target="mFydrjpnRVTKAJveF6Fc-55" edge="1">
          <mxGeometry relative="1" as="geometry">
            <mxPoint x="480" y="150" as="targetPoint" />
          </mxGeometry>
        </mxCell>
        <mxCell id="mFydrjpnRVTKAJveF6Fc-59" style="edgeStyle=orthogonalEdgeStyle;rounded=0;orthogonalLoop=1;jettySize=auto;html=1;entryX=0;entryY=0.5;entryDx=0;entryDy=0;entryPerimeter=0;" parent="mFydrjpnRVTKAJveF6Fc-24" source="mFydrjpnRVTKAJveF6Fc-35" target="mFydrjpnRVTKAJveF6Fc-55" edge="1">
          <mxGeometry relative="1" as="geometry">
            <mxPoint x="480" y="150" as="targetPoint" />
          </mxGeometry>
        </mxCell>
        <mxCell id="mFydrjpnRVTKAJveF6Fc-60" style="edgeStyle=orthogonalEdgeStyle;rounded=0;orthogonalLoop=1;jettySize=auto;html=1;entryX=0;entryY=0.5;entryDx=0;entryDy=0;entryPerimeter=0;" parent="mFydrjpnRVTKAJveF6Fc-24" source="mFydrjpnRVTKAJveF6Fc-37" target="mFydrjpnRVTKAJveF6Fc-55" edge="1">
          <mxGeometry relative="1" as="geometry">
            <mxPoint x="480" y="150" as="targetPoint" />
          </mxGeometry>
        </mxCell>
        <mxCell id="mFydrjpnRVTKAJveF6Fc-61" style="edgeStyle=orthogonalEdgeStyle;rounded=0;orthogonalLoop=1;jettySize=auto;html=1;exitX=1;exitY=0.5;exitDx=0;exitDy=0;entryX=0;entryY=0.5;entryDx=0;entryDy=0;entryPerimeter=0;" parent="mFydrjpnRVTKAJveF6Fc-24" source="mFydrjpnRVTKAJveF6Fc-36" target="mFydrjpnRVTKAJveF6Fc-55" edge="1">
          <mxGeometry relative="1" as="geometry">
            <mxPoint x="480" y="150" as="targetPoint" />
          </mxGeometry>
        </mxCell>
        <mxCell id="mFydrjpnRVTKAJveF6Fc-63" value="Classifica e Prioriza" style="rounded=1;whiteSpace=wrap;html=1;" parent="mFydrjpnRVTKAJveF6Fc-24" vertex="1">
          <mxGeometry x="360" y="20" width="120" height="60" as="geometry" />
        </mxCell>
        <mxCell id="mFydrjpnRVTKAJveF6Fc-62" style="edgeStyle=orthogonalEdgeStyle;rounded=0;orthogonalLoop=1;jettySize=auto;html=1;" parent="mFydrjpnRVTKAJveF6Fc-24" source="mFydrjpnRVTKAJveF6Fc-55" target="mFydrjpnRVTKAJveF6Fc-63" edge="1">
          <mxGeometry relative="1" as="geometry">
            <mxPoint x="520" y="170" as="targetPoint" />
            <Array as="points">
              <mxPoint x="420" y="85" />
            </Array>
          </mxGeometry>
        </mxCell>
        <mxCell id="mFydrjpnRVTKAJveF6Fc-66" style="edgeStyle=orthogonalEdgeStyle;rounded=0;orthogonalLoop=1;jettySize=auto;html=1;entryX=0.5;entryY=0;entryDx=0;entryDy=0;" parent="mFydrjpnRVTKAJveF6Fc-24" source="mFydrjpnRVTKAJveF6Fc-65" target="mFydrjpnRVTKAJveF6Fc-25" edge="1">
          <mxGeometry relative="1" as="geometry" />
        </mxCell>
        <mxCell id="mFydrjpnRVTKAJveF6Fc-65" value="" style="shape=mxgraph.bpmn.shape;html=1;verticalLabelPosition=bottom;labelBackgroundColor=#ffffff;verticalAlign=top;perimeter=ellipsePerimeter;outline=standard;symbol=general;fillColor=#d5e8d4;strokeColor=#82b366;" parent="mFydrjpnRVTKAJveF6Fc-24" vertex="1">
          <mxGeometry x="45" y="25" width="50" height="50" as="geometry" />
        </mxCell>
        <mxCell id="mFydrjpnRVTKAJveF6Fc-117" style="edgeStyle=orthogonalEdgeStyle;rounded=0;orthogonalLoop=1;jettySize=auto;html=1;entryX=0;entryY=0.5;entryDx=0;entryDy=0;entryPerimeter=0;" parent="mFydrjpnRVTKAJveF6Fc-24" source="mFydrjpnRVTKAJveF6Fc-63" target="mFydrjpnRVTKAJveF6Fc-116" edge="1">
          <mxGeometry relative="1" as="geometry">
            <Array as="points">
              <mxPoint x="460" y="140" />
            </Array>
          </mxGeometry>
        </mxCell>
        <mxCell id="mFydrjpnRVTKAJveF6Fc-116" value="" style="points=[[0.25,0.25,0],[0.5,0,0],[0.75,0.25,0],[1,0.5,0],[0.75,0.75,0],[0.5,1,0],[0.25,0.75,0],[0,0.5,0]];shape=mxgraph.bpmn.gateway2;html=1;verticalLabelPosition=bottom;labelBackgroundColor=#ffffff;verticalAlign=top;align=center;perimeter=rhombusPerimeter;outlineConnect=0;outline=none;symbol=none;gwType=exclusive;" parent="mFydrjpnRVTKAJveF6Fc-24" vertex="1">
          <mxGeometry x="545" y="115" width="50" height="50" as="geometry" />
        </mxCell>
        <mxCell id="mFydrjpnRVTKAJveF6Fc-148" style="edgeStyle=orthogonalEdgeStyle;rounded=0;orthogonalLoop=1;jettySize=auto;html=1;entryX=1;entryY=0.5;entryDx=0;entryDy=0;" parent="mFydrjpnRVTKAJveF6Fc-24" source="mFydrjpnRVTKAJveF6Fc-119" target="mFydrjpnRVTKAJveF6Fc-145" edge="1">
          <mxGeometry relative="1" as="geometry">
            <mxPoint x="790" y="60" as="targetPoint" />
            <Array as="points">
              <mxPoint x="790" y="230" />
              <mxPoint x="790" y="50" />
            </Array>
          </mxGeometry>
        </mxCell>
        <mxCell id="mFydrjpnRVTKAJveF6Fc-119" value="Urgências" style="rounded=1;whiteSpace=wrap;html=1;" parent="mFydrjpnRVTKAJveF6Fc-24" vertex="1">
          <mxGeometry x="510" y="200" width="120" height="60" as="geometry" />
        </mxCell>
        <mxCell id="mFydrjpnRVTKAJveF6Fc-118" style="edgeStyle=orthogonalEdgeStyle;rounded=0;orthogonalLoop=1;jettySize=auto;html=1;" parent="mFydrjpnRVTKAJveF6Fc-24" source="mFydrjpnRVTKAJveF6Fc-116" target="mFydrjpnRVTKAJveF6Fc-119" edge="1">
          <mxGeometry relative="1" as="geometry">
            <mxPoint x="570" y="200" as="targetPoint" />
          </mxGeometry>
        </mxCell>
        <mxCell id="mFydrjpnRVTKAJveF6Fc-147" style="edgeStyle=orthogonalEdgeStyle;rounded=0;orthogonalLoop=1;jettySize=auto;html=1;exitX=1;exitY=0.5;exitDx=0;exitDy=0;entryX=0;entryY=0.5;entryDx=0;entryDy=0;" parent="mFydrjpnRVTKAJveF6Fc-24" source="mFydrjpnRVTKAJveF6Fc-121" target="mFydrjpnRVTKAJveF6Fc-145" edge="1">
          <mxGeometry relative="1" as="geometry" />
        </mxCell>
        <mxCell id="mFydrjpnRVTKAJveF6Fc-121" value="Emergência" style="rounded=1;whiteSpace=wrap;html=1;" parent="mFydrjpnRVTKAJveF6Fc-24" vertex="1">
          <mxGeometry x="510" y="20" width="120" height="60" as="geometry" />
        </mxCell>
        <mxCell id="mFydrjpnRVTKAJveF6Fc-120" style="edgeStyle=orthogonalEdgeStyle;rounded=0;orthogonalLoop=1;jettySize=auto;html=1;" parent="mFydrjpnRVTKAJveF6Fc-24" source="mFydrjpnRVTKAJveF6Fc-116" target="mFydrjpnRVTKAJveF6Fc-121" edge="1">
          <mxGeometry relative="1" as="geometry">
            <mxPoint x="570" y="50" as="targetPoint" />
          </mxGeometry>
        </mxCell>
        <mxCell id="mFydrjpnRVTKAJveF6Fc-146" style="edgeStyle=orthogonalEdgeStyle;rounded=0;orthogonalLoop=1;jettySize=auto;html=1;entryX=0.5;entryY=1;entryDx=0;entryDy=0;" parent="mFydrjpnRVTKAJveF6Fc-24" source="mFydrjpnRVTKAJveF6Fc-123" target="mFydrjpnRVTKAJveF6Fc-145" edge="1">
          <mxGeometry relative="1" as="geometry" />
        </mxCell>
        <mxCell id="mFydrjpnRVTKAJveF6Fc-123" value="Urgência Relativa" style="rounded=1;whiteSpace=wrap;html=1;" parent="mFydrjpnRVTKAJveF6Fc-24" vertex="1">
          <mxGeometry x="630" y="110" width="120" height="60" as="geometry" />
        </mxCell>
        <mxCell id="mFydrjpnRVTKAJveF6Fc-122" style="edgeStyle=orthogonalEdgeStyle;rounded=0;orthogonalLoop=1;jettySize=auto;html=1;" parent="mFydrjpnRVTKAJveF6Fc-24" source="mFydrjpnRVTKAJveF6Fc-116" target="mFydrjpnRVTKAJveF6Fc-123" edge="1">
          <mxGeometry relative="1" as="geometry">
            <mxPoint x="655" y="140" as="targetPoint" />
          </mxGeometry>
        </mxCell>
        <mxCell id="mFydrjpnRVTKAJveF6Fc-145" value="" style="shape=mxgraph.bpmn.shape;html=1;verticalLabelPosition=bottom;labelBackgroundColor=#ffffff;verticalAlign=top;perimeter=ellipsePerimeter;outline=standard;symbol=general;fillColor=#f8cecc;strokeColor=#b85450;" parent="mFydrjpnRVTKAJveF6Fc-24" vertex="1">
          <mxGeometry x="665" y="25" width="50" height="50" as="geometry" />
        </mxCell>
        <mxCell id="mFydrjpnRVTKAJveF6Fc-250" value="Começa triagem" style="text;html=1;align=center;verticalAlign=middle;whiteSpace=wrap;rounded=0;" parent="mFydrjpnRVTKAJveF6Fc-24" vertex="1">
          <mxGeometry x="90" y="35" width="60" height="30" as="geometry" />
        </mxCell>
        <mxCell id="mFydrjpnRVTKAJveF6Fc-251" value="Termina triagem" style="text;html=1;align=center;verticalAlign=middle;whiteSpace=wrap;rounded=0;" parent="mFydrjpnRVTKAJveF6Fc-24" vertex="1">
          <mxGeometry x="715" y="10" width="60" height="30" as="geometry" />
        </mxCell>
        <mxCell id="mFydrjpnRVTKAJveF6Fc-70" value="Segurança" style="swimlane;horizontal=0;whiteSpace=wrap;html=1;" parent="1" vertex="1">
          <mxGeometry y="750" width="850" height="320" as="geometry" />
        </mxCell>
        <mxCell id="mFydrjpnRVTKAJveF6Fc-72" value="Apertar o botão" style="rounded=1;whiteSpace=wrap;html=1;" parent="mFydrjpnRVTKAJveF6Fc-70" vertex="1">
          <mxGeometry x="220" y="55" width="70" height="40" as="geometry" />
        </mxCell>
        <mxCell id="mFydrjpnRVTKAJveF6Fc-184" style="edgeStyle=orthogonalEdgeStyle;rounded=0;orthogonalLoop=1;jettySize=auto;html=1;exitX=1;exitY=0.5;exitDx=0;exitDy=0;entryX=0;entryY=0.5;entryDx=0;entryDy=0;" parent="mFydrjpnRVTKAJveF6Fc-70" source="mFydrjpnRVTKAJveF6Fc-73" target="mFydrjpnRVTKAJveF6Fc-72" edge="1">
          <mxGeometry relative="1" as="geometry" />
        </mxCell>
        <mxCell id="mFydrjpnRVTKAJveF6Fc-73" value="Identifica a chegada" style="rounded=1;whiteSpace=wrap;html=1;" parent="mFydrjpnRVTKAJveF6Fc-70" vertex="1">
          <mxGeometry x="110" y="55" width="80" height="40" as="geometry" />
        </mxCell>
        <mxCell id="mFydrjpnRVTKAJveF6Fc-187" style="edgeStyle=orthogonalEdgeStyle;rounded=0;orthogonalLoop=1;jettySize=auto;html=1;entryX=0.5;entryY=0;entryDx=0;entryDy=0;" parent="mFydrjpnRVTKAJveF6Fc-70" source="mFydrjpnRVTKAJveF6Fc-79" target="mFydrjpnRVTKAJveF6Fc-186" edge="1">
          <mxGeometry relative="1" as="geometry" />
        </mxCell>
        <mxCell id="mFydrjpnRVTKAJveF6Fc-79" value="Dois Toques" style="points=[[0.25,0,0],[0.5,0,0],[0.75,0,0],[1,0.25,0],[1,0.5,0],[1,0.75,0],[0.75,1,0],[0.5,1,0],[0.25,1,0],[0,0.75,0],[0,0.5,0],[0,0.25,0]];shape=mxgraph.bpmn.task;whiteSpace=wrap;rectStyle=rounded;size=10;html=1;container=1;expand=0;collapsible=0;taskMarker=abstract;" parent="mFydrjpnRVTKAJveF6Fc-70" vertex="1">
          <mxGeometry x="130" y="125" width="75" height="40" as="geometry" />
        </mxCell>
        <mxCell id="mFydrjpnRVTKAJveF6Fc-189" style="edgeStyle=orthogonalEdgeStyle;rounded=0;orthogonalLoop=1;jettySize=auto;html=1;entryX=0;entryY=0.5;entryDx=0;entryDy=0;" parent="mFydrjpnRVTKAJveF6Fc-70" source="mFydrjpnRVTKAJveF6Fc-77" target="mFydrjpnRVTKAJveF6Fc-95" edge="1">
          <mxGeometry relative="1" as="geometry" />
        </mxCell>
        <mxCell id="mFydrjpnRVTKAJveF6Fc-77" value="" style="points=[[0.25,0.25,0],[0.5,0,0],[0.75,0.25,0],[1,0.5,0],[0.75,0.75,0],[0.5,1,0],[0.25,0.75,0],[0,0.5,0]];shape=mxgraph.bpmn.gateway2;html=1;verticalLabelPosition=bottom;labelBackgroundColor=#ffffff;verticalAlign=top;align=center;perimeter=rhombusPerimeter;outlineConnect=0;outline=none;symbol=none;gwType=exclusive;" parent="mFydrjpnRVTKAJveF6Fc-70" vertex="1">
          <mxGeometry x="230" y="120" width="50" height="50" as="geometry" />
        </mxCell>
        <mxCell id="mFydrjpnRVTKAJveF6Fc-76" style="edgeStyle=orthogonalEdgeStyle;rounded=0;orthogonalLoop=1;jettySize=auto;html=1;" parent="mFydrjpnRVTKAJveF6Fc-70" source="mFydrjpnRVTKAJveF6Fc-72" target="mFydrjpnRVTKAJveF6Fc-77" edge="1">
          <mxGeometry relative="1" as="geometry">
            <mxPoint x="490" y="210" as="targetPoint" />
          </mxGeometry>
        </mxCell>
        <mxCell id="mFydrjpnRVTKAJveF6Fc-95" value="Enfermagem recebe o chamado" style="rounded=1;whiteSpace=wrap;html=1;" parent="mFydrjpnRVTKAJveF6Fc-70" vertex="1">
          <mxGeometry x="330" y="115" width="130" height="60" as="geometry" />
        </mxCell>
        <mxCell id="mFydrjpnRVTKAJveF6Fc-183" style="edgeStyle=orthogonalEdgeStyle;rounded=0;orthogonalLoop=1;jettySize=auto;html=1;entryX=0;entryY=0.5;entryDx=0;entryDy=0;" parent="mFydrjpnRVTKAJveF6Fc-70" source="mFydrjpnRVTKAJveF6Fc-138" target="mFydrjpnRVTKAJveF6Fc-73" edge="1">
          <mxGeometry relative="1" as="geometry" />
        </mxCell>
        <mxCell id="mFydrjpnRVTKAJveF6Fc-138" value="" style="shape=mxgraph.bpmn.shape;html=1;verticalLabelPosition=bottom;labelBackgroundColor=#ffffff;verticalAlign=top;perimeter=ellipsePerimeter;outline=standard;symbol=general;fillColor=#d5e8d4;strokeColor=#82b366;" parent="mFydrjpnRVTKAJveF6Fc-70" vertex="1">
          <mxGeometry x="35" y="50" width="50" height="50" as="geometry" />
        </mxCell>
        <mxCell id="mFydrjpnRVTKAJveF6Fc-181" value="Recebe Paciente" style="text;html=1;align=center;verticalAlign=middle;whiteSpace=wrap;rounded=0;" parent="mFydrjpnRVTKAJveF6Fc-70" vertex="1">
          <mxGeometry x="35" y="15" width="60" height="30" as="geometry" />
        </mxCell>
        <mxCell id="mFydrjpnRVTKAJveF6Fc-185" style="edgeStyle=orthogonalEdgeStyle;rounded=0;orthogonalLoop=1;jettySize=auto;html=1;entryX=1;entryY=0.5;entryDx=0;entryDy=0;entryPerimeter=0;" parent="mFydrjpnRVTKAJveF6Fc-70" source="mFydrjpnRVTKAJveF6Fc-77" target="mFydrjpnRVTKAJveF6Fc-79" edge="1">
          <mxGeometry relative="1" as="geometry" />
        </mxCell>
        <mxCell id="mFydrjpnRVTKAJveF6Fc-186" value="Médicos e Enfermagem recebem&amp;nbsp; o chamado" style="rounded=1;whiteSpace=wrap;html=1;" parent="mFydrjpnRVTKAJveF6Fc-70" vertex="1">
          <mxGeometry x="97.5" y="190" width="140" height="45" as="geometry" />
        </mxCell>
        <mxCell id="mFydrjpnRVTKAJveF6Fc-166" value="&lt;span style=&quot;font-weight: 700;&quot;&gt;Sala de emergência&lt;/span&gt;" style="rounded=0;whiteSpace=wrap;html=1;" parent="1" vertex="1">
          <mxGeometry y="720" width="850" height="30" as="geometry" />
        </mxCell>
        <mxCell id="mFydrjpnRVTKAJveF6Fc-180" value="Enfermagem" style="swimlane;horizontal=0;whiteSpace=wrap;html=1;startSize=23;" parent="1" vertex="1">
          <mxGeometry y="1070" width="850" height="200" as="geometry" />
        </mxCell>
        <mxCell id="mFydrjpnRVTKAJveF6Fc-103" value="Triagem" style="points=[[0.25,0,0],[0.5,0,0],[0.75,0,0],[1,0.25,0],[1,0.5,0],[1,0.75,0],[0.75,1,0],[0.5,1,0],[0.25,1,0],[0,0.75,0],[0,0.5,0],[0,0.25,0]];shape=mxgraph.bpmn.task;whiteSpace=wrap;rectStyle=rounded;size=10;html=1;container=1;expand=0;collapsible=0;taskMarker=abstract;isLoopSub=1;" parent="mFydrjpnRVTKAJveF6Fc-180" vertex="1">
          <mxGeometry x="250" y="130" width="70" height="50" as="geometry" />
        </mxCell>
        <mxCell id="mFydrjpnRVTKAJveF6Fc-111" value="" style="points=[[0.25,0.25,0],[0.5,0,0],[0.75,0.25,0],[1,0.5,0],[0.75,0.75,0],[0.5,1,0],[0.25,0.75,0],[0,0.5,0]];shape=mxgraph.bpmn.gateway2;html=1;verticalLabelPosition=bottom;labelBackgroundColor=#ffffff;verticalAlign=top;align=center;perimeter=rhombusPerimeter;outlineConnect=0;outline=none;symbol=none;gwType=exclusive;" parent="mFydrjpnRVTKAJveF6Fc-180" vertex="1">
          <mxGeometry x="370" y="20" width="50" height="50" as="geometry" />
        </mxCell>
        <mxCell id="mFydrjpnRVTKAJveF6Fc-190" value="Triagem" style="points=[[0.25,0,0],[0.5,0,0],[0.75,0,0],[1,0.25,0],[1,0.5,0],[1,0.75,0],[0.75,1,0],[0.5,1,0],[0.25,1,0],[0,0.75,0],[0,0.5,0],[0,0.25,0]];shape=mxgraph.bpmn.task;whiteSpace=wrap;rectStyle=rounded;size=10;html=1;container=1;expand=0;collapsible=0;taskMarker=abstract;isLoopSub=1;" parent="mFydrjpnRVTKAJveF6Fc-180" vertex="1">
          <mxGeometry x="470" y="20" width="70" height="50" as="geometry" />
        </mxCell>
        <mxCell id="mFydrjpnRVTKAJveF6Fc-241" style="edgeStyle=orthogonalEdgeStyle;rounded=0;orthogonalLoop=1;jettySize=auto;html=1;entryX=0;entryY=0.5;entryDx=0;entryDy=0;entryPerimeter=0;" parent="mFydrjpnRVTKAJveF6Fc-180" source="mFydrjpnRVTKAJveF6Fc-111" target="mFydrjpnRVTKAJveF6Fc-190" edge="1">
          <mxGeometry relative="1" as="geometry" />
        </mxCell>
        <mxCell id="mFydrjpnRVTKAJveF6Fc-192" value="Emergência" style="points=[[0.25,0,0],[0.5,0,0],[0.75,0,0],[1,0.25,0],[1,0.5,0],[1,0.75,0],[0.75,1,0],[0.5,1,0],[0.25,1,0],[0,0.75,0],[0,0.5,0],[0,0.25,0]];shape=mxgraph.bpmn.task;whiteSpace=wrap;rectStyle=rounded;size=10;html=1;container=1;expand=0;collapsible=0;taskMarker=abstract;isLoopSub=1;" parent="mFydrjpnRVTKAJveF6Fc-180" vertex="1">
          <mxGeometry x="240" y="20" width="90" height="50" as="geometry" />
        </mxCell>
        <mxCell id="mFydrjpnRVTKAJveF6Fc-140" value="" style="shape=mxgraph.bpmn.shape;html=1;verticalLabelPosition=bottom;labelBackgroundColor=#ffffff;verticalAlign=top;perimeter=ellipsePerimeter;outline=standard;symbol=general;fillColor=#f8cecc;strokeColor=#b85450;" parent="mFydrjpnRVTKAJveF6Fc-180" vertex="1">
          <mxGeometry x="650" y="90" width="50" height="50" as="geometry" />
        </mxCell>
        <mxCell id="mFydrjpnRVTKAJveF6Fc-243" value="Emergência atendida" style="text;html=1;align=center;verticalAlign=middle;whiteSpace=wrap;rounded=0;" parent="mFydrjpnRVTKAJveF6Fc-180" vertex="1">
          <mxGeometry x="645" y="50" width="60" height="30" as="geometry" />
        </mxCell>
        <mxCell id="mFydrjpnRVTKAJveF6Fc-244" style="edgeStyle=orthogonalEdgeStyle;rounded=0;orthogonalLoop=1;jettySize=auto;html=1;entryX=1;entryY=0.5;entryDx=0;entryDy=0;entryPerimeter=0;" parent="mFydrjpnRVTKAJveF6Fc-180" source="mFydrjpnRVTKAJveF6Fc-111" target="mFydrjpnRVTKAJveF6Fc-192" edge="1">
          <mxGeometry relative="1" as="geometry" />
        </mxCell>
        <mxCell id="mFydrjpnRVTKAJveF6Fc-246" style="edgeStyle=orthogonalEdgeStyle;rounded=0;orthogonalLoop=1;jettySize=auto;html=1;entryX=0.245;entryY=0.912;entryDx=0;entryDy=0;entryPerimeter=0;" parent="mFydrjpnRVTKAJveF6Fc-180" source="mFydrjpnRVTKAJveF6Fc-103" target="mFydrjpnRVTKAJveF6Fc-140" edge="1">
          <mxGeometry relative="1" as="geometry">
            <Array as="points">
              <mxPoint x="662" y="155" />
            </Array>
          </mxGeometry>
        </mxCell>
        <mxCell id="mFydrjpnRVTKAJveF6Fc-247" style="edgeStyle=orthogonalEdgeStyle;rounded=0;orthogonalLoop=1;jettySize=auto;html=1;entryX=-0.002;entryY=0.587;entryDx=0;entryDy=0;entryPerimeter=0;" parent="mFydrjpnRVTKAJveF6Fc-180" source="mFydrjpnRVTKAJveF6Fc-192" target="mFydrjpnRVTKAJveF6Fc-140" edge="1">
          <mxGeometry relative="1" as="geometry">
            <Array as="points">
              <mxPoint x="285" y="120" />
              <mxPoint x="490" y="120" />
            </Array>
          </mxGeometry>
        </mxCell>
        <mxCell id="mFydrjpnRVTKAJveF6Fc-248" style="edgeStyle=orthogonalEdgeStyle;rounded=0;orthogonalLoop=1;jettySize=auto;html=1;entryX=-0.013;entryY=0.349;entryDx=0;entryDy=0;entryPerimeter=0;" parent="mFydrjpnRVTKAJveF6Fc-180" source="mFydrjpnRVTKAJveF6Fc-190" target="mFydrjpnRVTKAJveF6Fc-140" edge="1">
          <mxGeometry relative="1" as="geometry" />
        </mxCell>
        <mxCell id="mFydrjpnRVTKAJveF6Fc-228" value="Médicos" style="swimlane;horizontal=0;whiteSpace=wrap;html=1;" parent="1" vertex="1">
          <mxGeometry y="1270" width="850" height="200" as="geometry" />
        </mxCell>
        <mxCell id="mFydrjpnRVTKAJveF6Fc-97" value="" style="points=[[0.25,0.25,0],[0.5,0,0],[0.75,0.25,0],[1,0.5,0],[0.75,0.75,0],[0.5,1,0],[0.25,0.75,0],[0,0.5,0]];shape=mxgraph.bpmn.gateway2;html=1;verticalLabelPosition=bottom;labelBackgroundColor=#ffffff;verticalAlign=top;align=center;perimeter=rhombusPerimeter;outlineConnect=0;outline=none;symbol=none;gwType=exclusive;" parent="mFydrjpnRVTKAJveF6Fc-228" vertex="1">
          <mxGeometry x="142.5" y="30" width="50" height="50" as="geometry" />
        </mxCell>
        <mxCell id="mFydrjpnRVTKAJveF6Fc-109" value="Emergência" style="points=[[0.25,0,0],[0.5,0,0],[0.75,0,0],[1,0.25,0],[1,0.5,0],[1,0.75,0],[0.75,1,0],[0.5,1,0],[0.25,1,0],[0,0.75,0],[0,0.5,0],[0,0.25,0]];shape=mxgraph.bpmn.task;whiteSpace=wrap;rectStyle=rounded;size=10;html=1;container=1;expand=0;collapsible=0;taskMarker=abstract;isLoopSub=1;" parent="mFydrjpnRVTKAJveF6Fc-228" vertex="1">
          <mxGeometry x="107.5" y="110" width="120" height="52.5" as="geometry" />
        </mxCell>
        <mxCell id="mFydrjpnRVTKAJveF6Fc-104" value="" style="points=[[0.25,0.25,0],[0.5,0,0],[0.75,0.25,0],[1,0.5,0],[0.75,0.75,0],[0.5,1,0],[0.25,0.75,0],[0,0.5,0]];shape=mxgraph.bpmn.gateway2;html=1;verticalLabelPosition=bottom;labelBackgroundColor=#ffffff;verticalAlign=top;align=center;perimeter=rhombusPerimeter;outlineConnect=0;outline=none;symbol=none;gwType=exclusive;" parent="mFydrjpnRVTKAJveF6Fc-228" vertex="1">
          <mxGeometry x="260" y="30" width="50" height="50" as="geometry" />
        </mxCell>
        <mxCell id="mFydrjpnRVTKAJveF6Fc-234" style="edgeStyle=orthogonalEdgeStyle;rounded=0;orthogonalLoop=1;jettySize=auto;html=1;entryX=0.5;entryY=0;entryDx=0;entryDy=0;entryPerimeter=0;" parent="mFydrjpnRVTKAJveF6Fc-228" source="mFydrjpnRVTKAJveF6Fc-97" target="mFydrjpnRVTKAJveF6Fc-109" edge="1">
          <mxGeometry relative="1" as="geometry" />
        </mxCell>
        <mxCell id="mFydrjpnRVTKAJveF6Fc-236" style="edgeStyle=orthogonalEdgeStyle;rounded=0;orthogonalLoop=1;jettySize=auto;html=1;entryX=0;entryY=0.5;entryDx=0;entryDy=0;entryPerimeter=0;" parent="mFydrjpnRVTKAJveF6Fc-228" source="mFydrjpnRVTKAJveF6Fc-97" target="mFydrjpnRVTKAJveF6Fc-104" edge="1">
          <mxGeometry relative="1" as="geometry" />
        </mxCell>
        <mxCell id="mFydrjpnRVTKAJveF6Fc-237" style="edgeStyle=orthogonalEdgeStyle;rounded=0;orthogonalLoop=1;jettySize=auto;html=1;entryX=1;entryY=0.5;entryDx=0;entryDy=0;entryPerimeter=0;exitX=0.5;exitY=1;exitDx=0;exitDy=0;exitPerimeter=0;" parent="mFydrjpnRVTKAJveF6Fc-228" source="mFydrjpnRVTKAJveF6Fc-104" target="mFydrjpnRVTKAJveF6Fc-109" edge="1">
          <mxGeometry relative="1" as="geometry">
            <Array as="points">
              <mxPoint x="285" y="136" />
              <mxPoint x="260" y="136" />
            </Array>
          </mxGeometry>
        </mxCell>
        <mxCell id="mFydrjpnRVTKAJveF6Fc-275" value="Realmente é Emergência" style="text;html=1;align=center;verticalAlign=middle;whiteSpace=wrap;rounded=0;" parent="mFydrjpnRVTKAJveF6Fc-228" vertex="1">
          <mxGeometry x="90" y="40" width="60" height="30" as="geometry" />
        </mxCell>
        <mxCell id="mFydrjpnRVTKAJveF6Fc-276" value="sim" style="text;html=1;align=center;verticalAlign=middle;whiteSpace=wrap;rounded=0;" parent="mFydrjpnRVTKAJveF6Fc-228" vertex="1">
          <mxGeometry x="160" y="80" width="60" height="30" as="geometry" />
        </mxCell>
        <mxCell id="mFydrjpnRVTKAJveF6Fc-278" value="Não" style="text;html=1;align=center;verticalAlign=middle;whiteSpace=wrap;rounded=0;" parent="mFydrjpnRVTKAJveF6Fc-228" vertex="1">
          <mxGeometry x="200" y="30" width="60" height="30" as="geometry" />
        </mxCell>
        <mxCell id="mFydrjpnRVTKAJveF6Fc-229" style="edgeStyle=orthogonalEdgeStyle;rounded=0;orthogonalLoop=1;jettySize=auto;html=1;entryX=0.5;entryY=0;entryDx=0;entryDy=0;entryPerimeter=0;" parent="1" source="mFydrjpnRVTKAJveF6Fc-186" target="mFydrjpnRVTKAJveF6Fc-97" edge="1">
          <mxGeometry relative="1" as="geometry">
            <mxPoint x="168" y="1160" as="targetPoint" />
          </mxGeometry>
        </mxCell>
        <mxCell id="mFydrjpnRVTKAJveF6Fc-238" style="edgeStyle=orthogonalEdgeStyle;rounded=0;orthogonalLoop=1;jettySize=auto;html=1;entryX=0.5;entryY=1;entryDx=0;entryDy=0;entryPerimeter=0;" parent="1" source="mFydrjpnRVTKAJveF6Fc-104" target="mFydrjpnRVTKAJveF6Fc-103" edge="1">
          <mxGeometry relative="1" as="geometry" />
        </mxCell>
        <mxCell id="mFydrjpnRVTKAJveF6Fc-240" style="edgeStyle=orthogonalEdgeStyle;rounded=0;orthogonalLoop=1;jettySize=auto;html=1;entryX=0.5;entryY=0;entryDx=0;entryDy=0;entryPerimeter=0;" parent="1" source="mFydrjpnRVTKAJveF6Fc-95" target="mFydrjpnRVTKAJveF6Fc-111" edge="1">
          <mxGeometry relative="1" as="geometry" />
        </mxCell>
        <mxCell id="mFydrjpnRVTKAJveF6Fc-245" style="edgeStyle=orthogonalEdgeStyle;rounded=0;orthogonalLoop=1;jettySize=auto;html=1;exitX=1;exitY=0.75;exitDx=0;exitDy=0;exitPerimeter=0;entryX=0.5;entryY=1;entryDx=0;entryDy=0;" parent="1" source="mFydrjpnRVTKAJveF6Fc-109" target="mFydrjpnRVTKAJveF6Fc-140" edge="1">
          <mxGeometry relative="1" as="geometry" />
        </mxCell>
        <mxCell id="mFydrjpnRVTKAJveF6Fc-249" value="&lt;span style=&quot;font-weight: 700;&quot;&gt;Enfermagem&lt;/span&gt;" style="rounded=0;whiteSpace=wrap;html=1;" parent="1" vertex="1">
          <mxGeometry y="1510" width="850" height="30" as="geometry" />
        </mxCell>
        <mxCell id="mFydrjpnRVTKAJveF6Fc-260" style="edgeStyle=orthogonalEdgeStyle;rounded=0;orthogonalLoop=1;jettySize=auto;html=1;" parent="1" source="mFydrjpnRVTKAJveF6Fc-259" target="mFydrjpnRVTKAJveF6Fc-261" edge="1">
          <mxGeometry relative="1" as="geometry">
            <mxPoint x="600" y="390" as="targetPoint" />
          </mxGeometry>
        </mxCell>
        <mxCell id="mFydrjpnRVTKAJveF6Fc-262" style="edgeStyle=orthogonalEdgeStyle;rounded=0;orthogonalLoop=1;jettySize=auto;html=1;entryX=0.5;entryY=0;entryDx=0;entryDy=0;" parent="1" source="mFydrjpnRVTKAJveF6Fc-259" edge="1">
          <mxGeometry relative="1" as="geometry">
            <mxPoint x="510" y="450" as="targetPoint" />
          </mxGeometry>
        </mxCell>
        <mxCell id="mFydrjpnRVTKAJveF6Fc-259" value="" style="points=[[0.25,0.25,0],[0.5,0,0],[0.75,0.25,0],[1,0.5,0],[0.75,0.75,0],[0.5,1,0],[0.25,0.75,0],[0,0.5,0]];shape=mxgraph.bpmn.gateway2;html=1;verticalLabelPosition=bottom;labelBackgroundColor=#ffffff;verticalAlign=top;align=center;perimeter=rhombusPerimeter;outlineConnect=0;outline=none;symbol=none;gwType=exclusive;" parent="1" vertex="1">
          <mxGeometry x="485" y="365" width="50" height="50" as="geometry" />
        </mxCell>
        <mxCell id="mFydrjpnRVTKAJveF6Fc-258" style="edgeStyle=orthogonalEdgeStyle;rounded=0;orthogonalLoop=1;jettySize=auto;html=1;" parent="1" source="mFydrjpnRVTKAJveF6Fc-22" target="mFydrjpnRVTKAJveF6Fc-259" edge="1">
          <mxGeometry relative="1" as="geometry">
            <mxPoint x="510" y="390" as="targetPoint" />
          </mxGeometry>
        </mxCell>
        <mxCell id="mFydrjpnRVTKAJveF6Fc-323" value="&lt;span style=&quot;font-weight: 700;&quot;&gt;Observação&lt;/span&gt;" style="rounded=0;whiteSpace=wrap;html=1;" parent="1" vertex="1">
          <mxGeometry y="1900" width="850" height="30" as="geometry" />
        </mxCell>
        <mxCell id="mFydrjpnRVTKAJveF6Fc-324" value="observação na UPA" style="swimlane;horizontal=0;whiteSpace=wrap;html=1;" parent="1" vertex="1">
          <mxGeometry y="1930" width="850" height="270" as="geometry" />
        </mxCell>
        <mxCell id="mFydrjpnRVTKAJveF6Fc-327" value="Fica 12 horas em observação" style="rounded=1;whiteSpace=wrap;html=1;" parent="mFydrjpnRVTKAJveF6Fc-324" vertex="1">
          <mxGeometry x="70" y="120" width="120" height="50" as="geometry" />
        </mxCell>
        <mxCell id="mFydrjpnRVTKAJveF6Fc-331" style="edgeStyle=orthogonalEdgeStyle;rounded=0;orthogonalLoop=1;jettySize=auto;html=1;entryX=0.5;entryY=0;entryDx=0;entryDy=0;" parent="mFydrjpnRVTKAJveF6Fc-324" source="mFydrjpnRVTKAJveF6Fc-329" target="mFydrjpnRVTKAJveF6Fc-327" edge="1">
          <mxGeometry relative="1" as="geometry" />
        </mxCell>
        <mxCell id="mFydrjpnRVTKAJveF6Fc-329" value="" style="shape=mxgraph.bpmn.shape;html=1;verticalLabelPosition=bottom;labelBackgroundColor=#ffffff;verticalAlign=top;perimeter=ellipsePerimeter;outline=standard;symbol=general;fillColor=#d5e8d4;strokeColor=#82b366;" parent="mFydrjpnRVTKAJveF6Fc-324" vertex="1">
          <mxGeometry x="45" y="20" width="50" height="50" as="geometry" />
        </mxCell>
        <mxCell id="mFydrjpnRVTKAJveF6Fc-330" value="Paciente entra em observação" style="text;html=1;align=center;verticalAlign=middle;whiteSpace=wrap;rounded=0;" parent="mFydrjpnRVTKAJveF6Fc-324" vertex="1">
          <mxGeometry x="100" y="30" width="60" height="30" as="geometry" />
        </mxCell>
        <mxCell id="mFydrjpnRVTKAJveF6Fc-332" value="" style="points=[[0.25,0.25,0],[0.5,0,0],[0.75,0.25,0],[1,0.5,0],[0.75,0.75,0],[0.5,1,0],[0.25,0.75,0],[0,0.5,0]];shape=mxgraph.bpmn.gateway2;html=1;verticalLabelPosition=bottom;labelBackgroundColor=#ffffff;verticalAlign=top;align=center;perimeter=rhombusPerimeter;outlineConnect=0;outline=none;symbol=none;gwType=exclusive;" parent="mFydrjpnRVTKAJveF6Fc-324" vertex="1">
          <mxGeometry x="400" y="120" width="50" height="50" as="geometry" />
        </mxCell>
        <mxCell id="mFydrjpnRVTKAJveF6Fc-334" value="Revalidação dos exames" style="rounded=1;whiteSpace=wrap;html=1;" parent="mFydrjpnRVTKAJveF6Fc-324" vertex="1">
          <mxGeometry x="230" y="127.5" width="120" height="35" as="geometry" />
        </mxCell>
        <mxCell id="mFydrjpnRVTKAJveF6Fc-333" style="edgeStyle=orthogonalEdgeStyle;rounded=0;orthogonalLoop=1;jettySize=auto;html=1;" parent="mFydrjpnRVTKAJveF6Fc-324" source="mFydrjpnRVTKAJveF6Fc-327" target="mFydrjpnRVTKAJveF6Fc-334" edge="1">
          <mxGeometry relative="1" as="geometry">
            <mxPoint x="260" y="150" as="targetPoint" />
          </mxGeometry>
        </mxCell>
        <mxCell id="mFydrjpnRVTKAJveF6Fc-336" style="edgeStyle=orthogonalEdgeStyle;rounded=0;orthogonalLoop=1;jettySize=auto;html=1;entryX=0;entryY=0.5;entryDx=0;entryDy=0;entryPerimeter=0;" parent="mFydrjpnRVTKAJveF6Fc-324" source="mFydrjpnRVTKAJveF6Fc-334" target="mFydrjpnRVTKAJveF6Fc-332" edge="1">
          <mxGeometry relative="1" as="geometry" />
        </mxCell>
        <mxCell id="mFydrjpnRVTKAJveF6Fc-340" value="Alta" style="points=[[0.25,0,0],[0.5,0,0],[0.75,0,0],[1,0.25,0],[1,0.5,0],[1,0.75,0],[0.75,1,0],[0.5,1,0],[0.25,1,0],[0,0.75,0],[0,0.5,0],[0,0.25,0]];shape=mxgraph.bpmn.task;whiteSpace=wrap;rectStyle=rounded;size=10;html=1;container=1;expand=0;collapsible=0;taskMarker=abstract;isLoopSub=1;" parent="mFydrjpnRVTKAJveF6Fc-324" vertex="1">
          <mxGeometry x="395" y="30" width="60" height="50" as="geometry" />
        </mxCell>
        <mxCell id="mFydrjpnRVTKAJveF6Fc-341" style="edgeStyle=orthogonalEdgeStyle;rounded=0;orthogonalLoop=1;jettySize=auto;html=1;entryX=0.5;entryY=1;entryDx=0;entryDy=0;entryPerimeter=0;" parent="mFydrjpnRVTKAJveF6Fc-324" source="mFydrjpnRVTKAJveF6Fc-332" target="mFydrjpnRVTKAJveF6Fc-340" edge="1">
          <mxGeometry relative="1" as="geometry" />
        </mxCell>
        <mxCell id="mFydrjpnRVTKAJveF6Fc-342" style="edgeStyle=orthogonalEdgeStyle;rounded=0;orthogonalLoop=1;jettySize=auto;html=1;entryX=0;entryY=0.5;entryDx=0;entryDy=0;entryPerimeter=0;" parent="mFydrjpnRVTKAJveF6Fc-324" source="mFydrjpnRVTKAJveF6Fc-332" target="mFydrjpnRVTKAJveF6Fc-344" edge="1">
          <mxGeometry relative="1" as="geometry">
            <mxPoint x="500" y="145" as="targetPoint" />
          </mxGeometry>
        </mxCell>
        <mxCell id="mFydrjpnRVTKAJveF6Fc-344" value="Alta para a residência" style="points=[[0.25,0,0],[0.5,0,0],[0.75,0,0],[1,0.25,0],[1,0.5,0],[1,0.75,0],[0.75,1,0],[0.5,1,0],[0.25,1,0],[0,0.75,0],[0,0.5,0],[0,0.25,0]];shape=mxgraph.bpmn.task;whiteSpace=wrap;rectStyle=rounded;size=10;html=1;container=1;expand=0;collapsible=0;taskMarker=abstract;isLoopSub=1;" parent="mFydrjpnRVTKAJveF6Fc-324" vertex="1">
          <mxGeometry x="490" y="115" width="90" height="60" as="geometry" />
        </mxCell>
        <mxCell id="mFydrjpnRVTKAJveF6Fc-345" value="Internação" style="points=[[0.25,0,0],[0.5,0,0],[0.75,0,0],[1,0.25,0],[1,0.5,0],[1,0.75,0],[0.75,1,0],[0.5,1,0],[0.25,1,0],[0,0.75,0],[0,0.5,0],[0,0.25,0]];shape=mxgraph.bpmn.task;whiteSpace=wrap;rectStyle=rounded;size=10;html=1;container=1;expand=0;collapsible=0;taskMarker=abstract;isLoopSub=1;" parent="mFydrjpnRVTKAJveF6Fc-324" vertex="1">
          <mxGeometry x="388" y="200" width="75" height="50" as="geometry" />
        </mxCell>
        <mxCell id="mFydrjpnRVTKAJveF6Fc-346" style="edgeStyle=orthogonalEdgeStyle;rounded=0;orthogonalLoop=1;jettySize=auto;html=1;entryX=0.5;entryY=0;entryDx=0;entryDy=0;entryPerimeter=0;" parent="mFydrjpnRVTKAJveF6Fc-324" source="mFydrjpnRVTKAJveF6Fc-332" target="mFydrjpnRVTKAJveF6Fc-345" edge="1">
          <mxGeometry relative="1" as="geometry" />
        </mxCell>
        <mxCell id="mFydrjpnRVTKAJveF6Fc-348" value="Nortear a alta" style="rounded=1;whiteSpace=wrap;html=1;" parent="mFydrjpnRVTKAJveF6Fc-324" vertex="1">
          <mxGeometry x="80" y="200" width="100" height="40" as="geometry" />
        </mxCell>
        <mxCell id="mFydrjpnRVTKAJveF6Fc-347" style="edgeStyle=orthogonalEdgeStyle;rounded=0;orthogonalLoop=1;jettySize=auto;html=1;" parent="mFydrjpnRVTKAJveF6Fc-324" source="mFydrjpnRVTKAJveF6Fc-327" target="mFydrjpnRVTKAJveF6Fc-348" edge="1">
          <mxGeometry relative="1" as="geometry">
            <mxPoint x="130" y="200" as="targetPoint" />
          </mxGeometry>
        </mxCell>
        <mxCell id="mFydrjpnRVTKAJveF6Fc-325" value="Prontuario" style="swimlane;horizontal=0;whiteSpace=wrap;html=1;" parent="1" vertex="1">
          <mxGeometry y="2470" width="850" height="200" as="geometry" />
        </mxCell>
        <mxCell id="mFydrjpnRVTKAJveF6Fc-360" value="" style="shape=mxgraph.bpmn.shape;html=1;verticalLabelPosition=bottom;labelBackgroundColor=#ffffff;verticalAlign=top;perimeter=ellipsePerimeter;outline=standard;symbol=general;fillColor=#d5e8d4;strokeColor=#82b366;" parent="mFydrjpnRVTKAJveF6Fc-325" vertex="1">
          <mxGeometry x="40" y="20" width="50" height="50" as="geometry" />
        </mxCell>
        <mxCell id="mFydrjpnRVTKAJveF6Fc-361" value="" style="shape=mxgraph.bpmn.shape;html=1;verticalLabelPosition=bottom;labelBackgroundColor=#ffffff;verticalAlign=top;perimeter=ellipsePerimeter;outline=standard;symbol=general;fillColor=#f8cecc;strokeColor=#b85450;" parent="mFydrjpnRVTKAJveF6Fc-325" vertex="1">
          <mxGeometry x="775" y="130" width="50" height="50" as="geometry" />
        </mxCell>
        <mxCell id="mFydrjpnRVTKAJveF6Fc-362" value="paciente entra em enternação" style="text;html=1;align=center;verticalAlign=middle;whiteSpace=wrap;rounded=0;" parent="mFydrjpnRVTKAJveF6Fc-325" vertex="1">
          <mxGeometry x="90" y="30" width="70" height="30" as="geometry" />
        </mxCell>
        <mxCell id="mFydrjpnRVTKAJveF6Fc-363" value="&lt;div&gt;&lt;span style=&quot;background-color: initial;&quot;&gt;&lt;font style=&quot;vertical-align: inherit;&quot;&gt;&lt;font style=&quot;vertical-align: inherit;&quot;&gt;Liberado para ir embora&lt;/font&gt;&lt;/font&gt;&lt;/span&gt;&lt;br&gt;&lt;/div&gt;" style="text;html=1;align=center;verticalAlign=middle;whiteSpace=wrap;rounded=0;" parent="mFydrjpnRVTKAJveF6Fc-325" vertex="1">
          <mxGeometry x="765" y="90" width="60" height="30" as="geometry" />
        </mxCell>
        <mxCell id="SjPhaNCC14H46dBqeiVX-2" value="&lt;font style=&quot;vertical-align: inherit;&quot;&gt;&lt;font style=&quot;vertical-align: inherit;&quot;&gt;Acompanhamento da unidade&lt;/font&gt;&lt;/font&gt;" style="rounded=1;whiteSpace=wrap;html=1;" vertex="1" parent="mFydrjpnRVTKAJveF6Fc-325">
          <mxGeometry x="40" y="100" width="120" height="60" as="geometry" />
        </mxCell>
        <mxCell id="SjPhaNCC14H46dBqeiVX-1" style="edgeStyle=orthogonalEdgeStyle;rounded=0;orthogonalLoop=1;jettySize=auto;html=1;" edge="1" parent="mFydrjpnRVTKAJveF6Fc-325" source="mFydrjpnRVTKAJveF6Fc-360" target="SjPhaNCC14H46dBqeiVX-2">
          <mxGeometry relative="1" as="geometry">
            <mxPoint x="65" y="110" as="targetPoint" />
          </mxGeometry>
        </mxCell>
        <mxCell id="SjPhaNCC14H46dBqeiVX-7" style="edgeStyle=orthogonalEdgeStyle;rounded=0;orthogonalLoop=1;jettySize=auto;html=1;entryX=0;entryY=0.5;entryDx=0;entryDy=0;" edge="1" parent="mFydrjpnRVTKAJveF6Fc-325" source="SjPhaNCC14H46dBqeiVX-6" target="mFydrjpnRVTKAJveF6Fc-361">
          <mxGeometry relative="1" as="geometry" />
        </mxCell>
        <mxCell id="SjPhaNCC14H46dBqeiVX-6" value="&lt;font style=&quot;vertical-align: inherit;&quot;&gt;&lt;font style=&quot;vertical-align: inherit;&quot;&gt;orientações pós-alta&lt;/font&gt;&lt;/font&gt;" style="rounded=1;whiteSpace=wrap;html=1;" vertex="1" parent="mFydrjpnRVTKAJveF6Fc-325">
          <mxGeometry x="570" y="100" width="140" height="60" as="geometry" />
        </mxCell>
        <mxCell id="SjPhaNCC14H46dBqeiVX-10" style="edgeStyle=orthogonalEdgeStyle;rounded=0;orthogonalLoop=1;jettySize=auto;html=1;entryX=0;entryY=0.5;entryDx=0;entryDy=0;" edge="1" parent="mFydrjpnRVTKAJveF6Fc-325" source="SjPhaNCC14H46dBqeiVX-8" target="SjPhaNCC14H46dBqeiVX-6">
          <mxGeometry relative="1" as="geometry" />
        </mxCell>
        <mxCell id="SjPhaNCC14H46dBqeiVX-8" value="Alta" style="points=[[0.25,0,0],[0.5,0,0],[0.75,0,0],[1,0.25,0],[1,0.5,0],[1,0.75,0],[0.75,1,0],[0.5,1,0],[0.25,1,0],[0,0.75,0],[0,0.5,0],[0,0.25,0]];shape=mxgraph.bpmn.task;whiteSpace=wrap;rectStyle=rounded;size=10;html=1;container=1;expand=0;collapsible=0;taskMarker=abstract;isLoopSub=1;" vertex="1" parent="mFydrjpnRVTKAJveF6Fc-325">
          <mxGeometry x="400" y="100" width="60" height="50" as="geometry" />
        </mxCell>
        <mxCell id="mFydrjpnRVTKAJveF6Fc-326" value="&lt;span style=&quot;font-weight: 700;&quot;&gt;Internação&lt;/span&gt;" style="rounded=0;whiteSpace=wrap;html=1;" parent="1" vertex="1">
          <mxGeometry y="2440" width="850" height="30" as="geometry" />
        </mxCell>
        <mxCell id="mFydrjpnRVTKAJveF6Fc-349" value="Horizontal Container" style="swimlane;horizontal=0;whiteSpace=wrap;html=1;" parent="1" vertex="1">
          <mxGeometry y="2200" width="850" height="200" as="geometry" />
        </mxCell>
        <mxCell id="mFydrjpnRVTKAJveF6Fc-355" value="" style="shape=mxgraph.bpmn.shape;html=1;verticalLabelPosition=bottom;labelBackgroundColor=#ffffff;verticalAlign=top;perimeter=ellipsePerimeter;outline=standard;symbol=general;fillColor=#f8cecc;strokeColor=#b85450;" parent="mFydrjpnRVTKAJveF6Fc-349" vertex="1">
          <mxGeometry x="260" y="25" width="50" height="50" as="geometry" />
        </mxCell>
        <mxCell id="mFydrjpnRVTKAJveF6Fc-356" value="Liberado para ir para casa" style="text;html=1;align=center;verticalAlign=middle;whiteSpace=wrap;rounded=0;" parent="mFydrjpnRVTKAJveF6Fc-349" vertex="1">
          <mxGeometry x="250" y="85" width="60" height="30" as="geometry" />
        </mxCell>
        <mxCell id="mFydrjpnRVTKAJveF6Fc-352" style="edgeStyle=orthogonalEdgeStyle;rounded=0;orthogonalLoop=1;jettySize=auto;html=1;" parent="1" source="mFydrjpnRVTKAJveF6Fc-351" edge="1">
          <mxGeometry relative="1" as="geometry">
            <mxPoint x="260" y="2250" as="targetPoint" />
          </mxGeometry>
        </mxCell>
        <mxCell id="mFydrjpnRVTKAJveF6Fc-351" value="Justificar no pontuario" style="rounded=1;whiteSpace=wrap;html=1;" parent="1" vertex="1">
          <mxGeometry x="70" y="2220" width="120" height="60" as="geometry" />
        </mxCell>
        <mxCell id="mFydrjpnRVTKAJveF6Fc-350" style="edgeStyle=orthogonalEdgeStyle;rounded=0;orthogonalLoop=1;jettySize=auto;html=1;" parent="1" source="mFydrjpnRVTKAJveF6Fc-348" target="mFydrjpnRVTKAJveF6Fc-351" edge="1">
          <mxGeometry relative="1" as="geometry">
            <mxPoint x="130" y="2250" as="targetPoint" />
          </mxGeometry>
        </mxCell>
        <mxCell id="mFydrjpnRVTKAJveF6Fc-357" style="edgeStyle=orthogonalEdgeStyle;rounded=0;orthogonalLoop=1;jettySize=auto;html=1;entryX=0.5;entryY=0;entryDx=0;entryDy=0;" parent="1" source="mFydrjpnRVTKAJveF6Fc-345" target="mFydrjpnRVTKAJveF6Fc-355" edge="1">
          <mxGeometry relative="1" as="geometry" />
        </mxCell>
        <mxCell id="mFydrjpnRVTKAJveF6Fc-358" style="edgeStyle=orthogonalEdgeStyle;rounded=0;orthogonalLoop=1;jettySize=auto;html=1;entryX=1;entryY=0.5;entryDx=0;entryDy=0;" parent="1" source="mFydrjpnRVTKAJveF6Fc-344" target="mFydrjpnRVTKAJveF6Fc-355" edge="1">
          <mxGeometry relative="1" as="geometry">
            <Array as="points">
              <mxPoint x="535" y="2250" />
            </Array>
          </mxGeometry>
        </mxCell>
        <mxCell id="mFydrjpnRVTKAJveF6Fc-359" style="edgeStyle=orthogonalEdgeStyle;rounded=0;orthogonalLoop=1;jettySize=auto;html=1;entryX=0.855;entryY=0.855;entryDx=0;entryDy=0;entryPerimeter=0;" parent="1" source="mFydrjpnRVTKAJveF6Fc-340" target="mFydrjpnRVTKAJveF6Fc-355" edge="1">
          <mxGeometry relative="1" as="geometry">
            <mxPoint x="640" y="2280" as="targetPoint" />
            <Array as="points">
              <mxPoint x="610" y="1985" />
              <mxPoint x="610" y="2268" />
            </Array>
          </mxGeometry>
        </mxCell>
        <mxCell id="SjPhaNCC14H46dBqeiVX-4" value="&lt;font style=&quot;vertical-align: inherit;&quot;&gt;&lt;font style=&quot;vertical-align: inherit;&quot;&gt;incorporado ao prontuário Institucional&lt;/font&gt;&lt;/font&gt;" style="rounded=1;whiteSpace=wrap;html=1;" vertex="1" parent="1">
          <mxGeometry x="200" y="2570" width="120" height="60" as="geometry" />
        </mxCell>
        <mxCell id="SjPhaNCC14H46dBqeiVX-3" style="edgeStyle=orthogonalEdgeStyle;rounded=0;orthogonalLoop=1;jettySize=auto;html=1;" edge="1" parent="1" source="SjPhaNCC14H46dBqeiVX-2" target="SjPhaNCC14H46dBqeiVX-4">
          <mxGeometry relative="1" as="geometry">
            <mxPoint x="260" y="2600" as="targetPoint" />
          </mxGeometry>
        </mxCell>
        <mxCell id="SjPhaNCC14H46dBqeiVX-9" style="edgeStyle=orthogonalEdgeStyle;rounded=0;orthogonalLoop=1;jettySize=auto;html=1;entryX=0;entryY=0.5;entryDx=0;entryDy=0;entryPerimeter=0;" edge="1" parent="1" source="SjPhaNCC14H46dBqeiVX-4" target="SjPhaNCC14H46dBqeiVX-8">
          <mxGeometry relative="1" as="geometry" />
        </mxCell>
      </root>
    </mxGraphModel>
  </diagram>
</mxfile>
